{"glyphs":{"0":{"ha":769,"x_min":85,"x_max":685,"o":"m 385 -11 q 163 115 242 -11 q 85 468 85 240 q 163 822 85 695 q 385 948 242 948 q 606 822 527 948 q 685 468 685 695 q 606 115 685 240 q 385 -11 527 -11 l 385 -11 m 385 51 q 555 160 495 51 q 616 468 616 269 q 555 777 616 666 q 385 887 495 887 q 214 777 275 887 q 154 468 154 666 q 214 160 154 269 q 385 51 275 51 l 385 51 z "},"1":{"ha":768,"x_min":246,"x_max":522,"o":"m 453 0 l 453 712 l 246 712 l 246 762 l 294 762 q 414 812 361 762 q 479 937 466 862 l 522 937 l 522 0 l 453 0 l 453 0 z "},"2":{"ha":768,"x_min":96,"x_max":672,"o":"m 96 0 l 96 83 q 181 267 96 173 q 408 428 265 361 q 541 537 491 468 q 591 685 591 607 q 530 823 591 766 q 385 880 470 880 q 246 812 303 880 q 188 648 188 744 l 114 648 q 193 861 114 773 q 385 948 273 948 q 588 871 504 948 q 672 685 672 793 q 607 504 672 591 q 432 367 542 417 q 240 238 312 311 q 168 103 168 166 l 168 60 l 672 60 l 672 0 l 96 0 l 96 0 z "},"3":{"ha":769,"x_min":85,"x_max":685,"o":"m 385 -11 q 172 62 260 -11 q 85 240 85 135 l 85 251 l 159 251 l 159 240 q 225 107 159 163 q 385 51 291 51 q 545 113 479 51 q 610 264 610 175 q 558 394 610 340 q 432 448 506 448 l 325 448 l 325 517 l 432 517 q 533 570 491 517 q 574 697 574 623 q 516 817 574 768 q 374 867 457 867 q 235 815 293 867 q 177 690 177 764 l 177 659 l 103 659 l 108 708 q 186 871 108 804 q 374 937 264 937 q 568 867 488 937 q 648 697 648 796 q 611 561 648 619 q 517 486 574 502 q 638 404 591 466 q 685 264 685 341 q 597 70 685 150 q 385 -11 509 -11 l 385 -11 z "},"4":{"ha":769,"x_min":72,"x_max":697,"o":"m 491 0 l 491 219 l 72 219 l 72 300 l 504 937 l 553 937 l 553 289 l 697 289 l 697 219 l 553 219 l 553 0 l 491 0 l 491 0 m 141 289 l 491 289 l 491 809 l 141 289 l 141 289 z "},"5":{"ha":769,"x_min":85,"x_max":685,"o":"m 385 -11 q 180 58 265 -11 q 85 228 94 126 l 154 228 q 232 106 166 154 q 385 58 298 58 q 548 126 480 58 q 616 289 616 193 q 548 461 616 390 q 385 531 480 531 q 266 508 320 531 q 184 444 213 486 l 121 444 l 204 937 l 638 937 l 638 867 l 262 867 l 200 531 q 274 577 222 560 q 397 594 325 594 q 601 508 517 594 q 685 300 685 423 q 597 80 685 172 q 385 -11 509 -11 l 385 -11 z "},"6":{"ha":769,"x_min":85,"x_max":685,"o":"m 397 -11 q 163 98 242 -11 q 85 419 85 206 q 173 809 85 670 q 421 948 262 948 q 607 885 529 948 q 685 731 685 822 l 610 731 q 554 836 610 793 q 421 880 498 880 q 236 769 312 880 q 159 504 159 659 l 159 437 q 249 545 184 504 q 397 587 314 587 q 601 499 517 587 q 685 289 685 412 q 601 77 685 164 q 397 -11 517 -11 l 397 -11 m 397 51 q 552 120 488 51 q 616 289 616 190 q 552 456 616 387 q 397 526 488 526 q 241 456 305 526 q 177 289 177 387 q 241 120 177 190 q 397 51 305 51 l 397 51 z "},"7":{"ha":768,"x_min":105,"x_max":663,"o":"m 219 0 q 317 466 219 229 q 580 867 415 703 l 105 867 l 105 937 l 663 937 l 663 876 q 393 469 495 708 q 291 0 291 229 l 219 0 l 219 0 z "},"8":{"ha":769,"x_min":85,"x_max":685,"o":"m 385 -11 q 172 66 260 -11 q 85 251 85 143 q 136 404 85 334 q 271 504 188 473 q 165 590 204 535 q 126 708 126 645 q 202 878 126 807 q 385 948 278 948 q 567 878 491 948 q 643 708 643 807 q 604 583 643 639 q 500 504 565 527 q 634 404 583 473 q 685 251 685 334 q 597 66 685 143 q 385 -11 509 -11 l 385 -11 m 385 51 q 548 109 480 51 q 616 251 616 168 q 548 398 616 338 q 385 459 480 459 q 221 398 289 459 q 154 251 154 338 q 221 109 154 168 q 385 51 289 51 l 385 51 m 385 538 q 518 590 462 538 q 574 713 574 641 q 518 836 574 786 q 385 887 462 887 q 252 836 307 887 q 197 713 197 786 q 252 590 197 641 q 385 538 307 538 l 385 538 z "},"9":{"ha":769,"x_min":85,"x_max":685,"o":"m 374 -11 q 200 46 275 -11 q 108 191 125 103 l 177 191 q 244 87 188 128 q 374 45 300 45 q 545 153 473 45 q 616 410 616 260 l 616 493 q 526 379 591 423 q 385 336 462 336 q 167 418 249 336 q 85 636 85 500 q 167 855 85 773 q 385 937 249 937 q 606 817 527 937 q 685 480 685 697 q 603 118 685 247 q 374 -11 522 -11 l 374 -11 m 379 405 q 530 472 468 405 q 592 636 592 540 q 530 799 592 731 q 379 867 468 867 q 215 804 276 867 q 154 636 154 740 q 215 468 154 531 q 379 405 276 405 l 379 405 z "},"\u0000":{"ha":0,"x_min":0,"x_max":0,"o":""},"\f":{"ha":0,"x_min":0,"x_max":0,"o":""}," ":{"ha":385,"x_min":0,"x_max":0,"o":""},"!":{"ha":740,"x_min":433,"x_max":578,"o":"m 506 -72 q 454 -51 475 -72 q 433 0 433 -31 q 454 44 433 25 q 506 63 475 63 q 557 42 536 63 q 578 -9 578 22 q 557 -53 578 -34 q 506 -72 536 -72 l 506 -72 m 470 181 l 470 993 l 542 993 l 542 181 l 470 181 l 470 181 z "},"\"":{"ha":358,"x_min":4,"x_max":358,"o":"m 123 901 l 56 901 l 4 1187 l 112 1187 l 123 901 l 123 901 m 358 901 l 291 901 l 238 1187 l 347 1187 l 358 901 l 358 901 z "},"#":{"ha":1322,"x_min":163,"x_max":1160,"o":"m 253 610 l 253 694 l 515 694 l 582 907 l 665 907 l 598 694 l 876 694 l 943 907 l 1028 907 l 961 694 l 1160 694 l 1160 610 l 932 610 l 842 332 l 1069 332 l 1069 246 l 815 246 l 737 -2 l 652 -2 l 731 246 l 453 246 l 374 -2 l 291 -2 l 370 246 l 163 246 l 163 332 l 396 332 l 486 610 l 253 610 l 253 610 m 849 610 l 571 610 l 479 332 l 759 332 l 849 610 l 849 610 z "},"$":{"ha":1020,"x_min":163,"x_max":858,"o":"m 163 269 l 246 269 q 306 121 246 188 q 461 31 367 54 l 461 426 q 264 515 343 439 q 184 690 184 591 q 263 859 184 786 q 461 946 341 932 l 461 1102 l 549 1102 l 549 946 q 750 852 670 932 q 831 668 831 773 l 744 668 q 688 798 744 742 q 549 867 632 854 l 549 491 q 770 397 683 473 q 858 228 858 321 q 769 44 858 123 q 549 -49 681 -34 l 549 -173 l 461 -173 l 461 -49 q 247 60 332 -31 q 163 269 163 150 l 163 269 m 549 31 q 713 98 647 42 q 778 228 778 154 q 713 353 778 300 q 549 414 647 406 l 549 31 l 549 31 m 461 867 q 323 801 377 851 q 269 690 269 751 q 323 570 269 623 q 461 504 377 517 l 461 867 l 461 867 z "},"%":{"ha":1284,"x_min":163,"x_max":1122,"o":"m 280 0 l 190 0 l 1020 903 l 1120 903 l 280 0 l 280 0 m 914 -18 q 767 57 827 -18 q 706 238 706 132 q 767 421 706 345 q 914 497 827 497 q 1061 421 1001 497 q 1122 238 1122 345 q 1061 57 1122 132 q 914 -18 1001 -18 l 914 -18 m 914 54 q 1010 108 970 54 q 1049 238 1049 163 q 1010 370 1049 316 q 914 424 970 424 q 818 370 858 424 q 778 238 778 316 q 818 108 778 163 q 914 54 858 54 l 914 54 m 379 415 q 226 489 289 415 q 163 668 163 564 q 226 847 163 773 q 379 921 289 921 q 533 847 470 921 q 596 668 596 773 q 533 489 596 564 q 379 415 470 415 l 379 415 m 374 488 q 473 541 432 488 q 515 668 515 594 q 475 796 515 742 q 379 849 435 849 q 277 796 320 849 q 235 668 235 742 q 275 541 235 594 q 374 488 316 488 l 374 488 z "},"&":{"ha":1087,"x_min":163,"x_max":925,"o":"m 163 210 q 225 368 163 287 q 396 513 287 450 q 300 662 332 592 q 267 784 267 731 q 331 917 267 862 q 486 973 396 973 q 635 910 573 973 q 697 757 697 847 q 648 618 697 686 q 515 500 600 549 l 712 244 q 729 326 722 287 q 735 399 735 365 l 813 399 q 801 272 813 329 q 766 175 789 215 l 925 -34 l 816 -34 l 708 94 q 591 -8 663 29 q 441 -45 520 -45 q 244 30 325 -45 q 163 210 163 105 l 163 210 m 253 222 q 312 89 253 144 q 455 34 372 34 q 572 69 515 34 q 670 163 629 103 l 439 450 q 303 339 352 399 q 253 222 253 278 l 253 222 m 358 769 q 385 682 358 735 q 464 562 412 629 q 567 652 529 600 q 605 757 605 704 q 573 856 605 815 q 495 898 540 898 q 398 860 439 898 q 358 769 358 822 l 358 769 z "},"'":{"ha":123,"x_min":4,"x_max":123,"o":"m 123 901 l 56 901 l 4 1187 l 112 1187 l 123 901 l 123 901 z "},"(":{"ha":795,"x_min":163,"x_max":632,"o":"m 596 -379 q 279 -41 396 -264 q 163 452 163 182 q 279 944 163 721 q 596 1282 396 1167 l 632 1228 q 341 914 448 1122 q 235 452 235 706 q 341 -11 235 197 q 632 -325 448 -219 l 596 -379 l 596 -379 z "},")":{"ha":795,"x_min":163,"x_max":632,"o":"m 199 -379 l 163 -325 q 453 -11 347 -219 q 560 452 560 197 q 453 914 560 706 q 163 1228 347 1122 l 199 1282 q 516 944 399 1167 q 632 452 632 721 q 516 -41 632 182 q 199 -379 399 -264 l 199 -379 z "},"*":{"ha":840,"x_min":163,"x_max":677,"o":"m 325 885 l 244 939 l 379 1102 l 172 1066 l 163 1174 l 370 1156 l 253 1300 l 352 1346 l 415 1192 l 488 1346 l 578 1300 l 470 1156 l 677 1183 l 677 1084 l 470 1102 l 623 939 l 524 885 l 433 1084 l 325 885 l 325 885 z "},"+":{"ha":1048,"x_min":163,"x_max":885,"o":"m 488 90 l 488 406 l 163 406 l 163 479 l 488 479 l 488 795 l 560 795 l 560 479 l 885 479 l 885 406 l 560 406 l 560 90 l 488 90 l 488 90 z "},",":{"ha":578,"x_min":163,"x_max":415,"o":"m 208 -244 l 163 -190 q 287 -104 240 -154 q 334 -9 334 -54 q 331 -1 334 -5 q 325 9 329 4 q 296 -5 314 0 q 253 -9 278 -9 q 201 12 222 -9 q 181 63 181 33 q 210 134 181 105 q 280 163 238 163 q 376 120 336 163 q 415 18 415 78 q 359 -128 415 -58 q 208 -244 303 -199 l 208 -244 z "},"-":{"ha":740,"x_min":163,"x_max":578,"o":"m 163 433 l 163 497 l 578 497 l 578 433 l 163 433 l 163 433 z "},".":{"ha":488,"x_min":163,"x_max":325,"o":"m 244 0 q 186 25 210 0 q 163 85 163 51 q 186 146 163 121 q 244 172 210 172 q 302 146 278 172 q 325 85 325 121 q 302 25 325 51 q 244 0 278 0 l 244 0 z "},"/":{"ha":1102,"x_min":163,"x_max":939,"o":"m 217 -253 l 163 -208 l 885 1192 l 939 1156 l 217 -253 l 217 -253 z "},":":{"ha":488,"x_min":163,"x_max":325,"o":"m 244 515 q 186 540 210 515 q 163 600 163 565 q 189 661 163 636 q 253 686 215 686 q 304 661 284 686 q 325 600 325 636 q 302 540 325 565 q 244 515 278 515 l 244 515 m 244 0 q 186 25 210 0 q 163 85 163 51 q 186 146 163 121 q 244 172 210 172 q 302 146 278 172 q 325 85 325 121 q 302 25 325 51 q 244 0 278 0 l 244 0 z "},";":{"ha":569,"x_min":163,"x_max":406,"o":"m 199 -244 l 163 -190 q 287 -107 240 -154 q 334 -18 334 -60 q 331 -4 334 -11 q 325 9 329 4 q 298 -5 314 0 q 262 -9 282 -9 q 204 14 228 -9 q 181 72 181 38 q 210 136 181 110 q 280 163 238 163 q 369 115 332 163 q 406 0 406 67 q 349 -143 406 -76 q 199 -244 293 -210 l 199 -244 m 265 515 q 206 542 231 515 q 181 609 181 569 q 206 676 181 648 q 265 704 231 704 q 327 676 302 704 q 352 609 352 648 q 327 542 352 569 q 265 515 302 515 l 265 515 z "},"<":{"ha":952,"x_min":163,"x_max":789,"o":"m 163 394 l 163 500 l 789 874 l 789 777 l 251 452 l 789 126 l 789 25 l 163 394 l 163 394 z "},"=":{"ha":1048,"x_min":163,"x_max":885,"o":"m 163 271 l 163 325 l 885 325 l 885 271 l 163 271 l 163 271 m 163 578 l 163 632 l 885 632 l 885 578 l 163 578 l 163 578 z "},">":{"ha":952,"x_min":163,"x_max":789,"o":"m 789 394 l 163 25 l 163 126 l 701 452 l 163 777 l 163 874 l 789 500 l 789 394 l 789 394 z "},"?":{"ha":1093,"x_min":433,"x_max":930,"o":"m 686 -81 q 635 -61 656 -81 q 614 -9 614 -40 q 635 35 614 16 q 686 54 656 54 q 738 35 717 54 q 759 -9 759 16 q 738 -61 759 -40 q 686 -81 717 -81 l 686 -81 m 650 144 l 650 334 q 681 461 650 399 q 768 569 712 522 q 834 647 811 605 q 858 731 858 690 q 810 846 858 798 q 695 894 762 894 q 562 846 618 894 q 506 731 506 798 l 506 650 l 433 650 l 433 731 q 510 898 433 829 q 695 966 587 966 q 862 898 793 966 q 930 731 930 829 q 902 630 930 685 q 822 524 874 576 q 749 437 775 484 q 722 343 722 390 l 722 144 l 650 144 l 650 144 z "},"@":{"ha":1470,"x_min":163,"x_max":1308,"o":"m 457 433 q 530 617 457 540 q 708 694 603 694 q 797 675 755 694 q 871 619 840 656 l 871 685 l 961 685 l 961 282 q 984 235 961 255 q 1042 215 1008 215 q 1169 288 1116 215 q 1221 466 1221 361 q 1084 771 1221 645 q 753 898 946 898 q 396 759 544 898 q 247 426 247 621 q 396 125 247 249 q 753 0 544 0 q 906 22 834 0 q 1031 85 977 43 l 1075 11 q 924 -61 1006 -36 q 753 -87 842 -87 q 336 63 509 -87 q 163 426 163 213 q 336 818 163 656 q 753 981 509 981 q 1145 830 983 981 q 1308 466 1308 679 q 1230 228 1308 327 q 1042 128 1152 128 q 931 164 979 128 q 874 256 883 200 q 804 186 849 211 q 708 161 759 161 q 529 241 601 161 q 457 433 457 321 l 457 433 m 545 433 q 592 305 545 359 q 708 251 639 251 q 824 305 777 251 q 871 433 871 359 q 824 561 871 508 q 708 614 777 614 q 592 561 639 614 q 545 433 545 508 l 545 433 z "},"[":{"ha":686,"x_min":163,"x_max":524,"o":"m 163 -397 l 163 1300 l 524 1300 l 524 1246 l 235 1246 l 235 -343 l 524 -343 l 524 -397 l 163 -397 l 163 -397 z "},"\\":{"ha":876,"x_min":163,"x_max":713,"o":"m 713 -175 l 621 -175 l 163 1102 l 255 1102 l 713 -175 l 713 -175 z "},"]":{"ha":686,"x_min":163,"x_max":524,"o":"m 163 -397 l 163 -343 l 452 -343 l 452 1246 l 163 1246 l 163 1300 l 524 1300 l 524 -397 l 163 -397 l 163 -397 z "},"^":{"ha":964,"x_min":163,"x_max":802,"o":"m 421 652 l 538 652 l 802 188 l 695 188 l 482 574 l 269 188 l 163 188 l 421 652 l 421 652 z "},"_":{"ha":1291,"x_min":163,"x_max":1129,"o":"m 163 -448 l 163 -356 l 1129 -356 l 1129 -448 l 163 -448 l 163 -448 z "},"`":{"ha":517,"x_min":163,"x_max":354,"o":"m 354 901 l 287 901 l 163 1187 l 280 1187 l 354 901 l 354 901 z "},"{":{"ha":712,"x_min":163,"x_max":549,"o":"m 163 421 q 259 467 219 421 q 300 578 300 513 l 300 757 q 373 973 300 883 q 549 1062 446 1062 l 549 992 q 434 923 482 992 q 387 757 387 854 l 387 578 q 356 465 387 515 q 275 397 325 415 q 356 331 325 379 q 387 220 387 282 l 387 43 q 434 -123 387 -54 q 549 -191 482 -191 l 549 -264 q 373 -173 446 -264 q 300 43 300 -83 l 300 220 q 259 328 300 284 q 163 372 219 372 l 163 421 l 163 421 z "},"|":{"ha":415,"x_min":163,"x_max":253,"o":"m 163 -442 l 163 1355 l 253 1355 l 253 -442 l 163 -442 l 163 -442 z "},"}":{"ha":713,"x_min":163,"x_max":551,"o":"m 551 468 l 551 419 q 454 375 495 419 q 414 267 414 331 l 414 90 q 340 -126 414 -36 q 163 -217 267 -217 l 163 -144 q 279 -76 231 -144 q 327 90 327 -7 l 327 267 q 359 376 327 327 q 442 442 390 424 q 359 511 390 461 q 327 625 327 562 l 327 804 q 279 970 327 901 q 163 1039 231 1039 l 163 1109 q 340 1020 267 1109 q 414 804 414 930 l 414 625 q 454 514 414 560 q 551 468 495 468 l 551 468 z "},"~":{"ha":1033,"x_min":163,"x_max":871,"o":"m 211 412 l 163 473 q 257 532 208 511 q 354 553 307 553 q 440 542 401 553 q 504 509 479 531 q 583 456 545 475 q 650 437 621 437 q 743 459 699 437 q 820 518 787 480 l 871 461 q 773 387 831 414 q 650 361 715 361 q 571 374 609 361 q 504 412 533 387 q 434 452 473 439 q 356 466 396 466 q 280 452 318 466 q 211 412 242 439 l 211 412 z "},"¢":{"ha":925,"x_min":112,"x_max":858,"o":"m 112 452 q 215 779 112 656 q 489 903 318 903 q 554 899 524 903 q 609 890 583 896 l 690 1091 l 780 1091 l 688 854 q 802 741 759 807 q 851 605 845 675 l 750 605 q 722 690 746 647 q 657 773 699 733 l 396 96 q 446 84 423 88 q 489 79 470 79 q 677 142 603 79 q 760 309 751 204 l 858 309 q 745 81 845 166 q 489 -4 645 -4 q 426 1 459 -4 q 363 14 394 5 l 291 -170 l 200 -170 l 287 51 q 158 217 204 110 q 112 452 112 323 l 112 452 m 582 807 q 529 816 553 813 q 489 820 506 820 q 286 720 363 820 q 210 452 210 619 q 238 278 210 359 q 318 137 265 197 l 582 807 l 582 807 z "},"×":{"ha":941,"x_min":163,"x_max":778,"o":"m 163 601 l 233 674 l 470 437 l 706 674 l 778 601 l 540 367 l 778 128 l 706 58 l 470 294 l 233 58 l 163 128 l 399 367 l 163 601 l 163 601 z "},"÷":{"ha":961,"x_min":163,"x_max":798,"o":"m 798 452 l 798 350 l 163 350 l 163 452 l 798 452 l 798 452 m 480 235 q 545 208 518 235 q 573 143 573 181 q 545 78 573 105 q 480 51 518 51 q 415 78 442 51 q 388 143 388 105 q 415 208 388 181 q 480 235 442 235 l 480 235 m 480 753 q 545 726 518 753 q 573 661 573 699 q 545 596 573 623 q 480 569 518 569 q 415 596 442 569 q 388 661 388 623 q 415 726 388 699 q 480 753 442 753 l 480 753 z "},"।":{"ha":497,"x_min":271,"x_max":361,"o":"m 271 0 l 271 903 l 361 903 l 361 0 l 271 0 l 271 0 z "},"॥":{"ha":786,"x_min":271,"x_max":650,"o":"m 271 0 l 271 903 l 361 903 l 361 0 l 271 0 l 271 0 m 560 0 l 560 903 l 650 903 l 650 0 l 560 0 l 560 0 z "},"ঁ":{"ha":0,"x_min":-488,"x_max":90,"o":"m -199 1039 q -396 1109 -312 1039 q -488 1282 -479 1179 l -415 1291 q -341 1164 -403 1214 q -199 1114 -280 1114 q -56 1165 -117 1114 q 18 1291 5 1216 l 90 1282 q -2 1109 81 1179 q -199 1039 -85 1039 l -199 1039 m -199 1228 q -250 1245 -229 1228 q -271 1288 -271 1262 q -248 1335 -271 1315 q -193 1355 -226 1355 q -146 1336 -166 1355 q -126 1291 -126 1317 q -147 1247 -126 1266 q -199 1228 -168 1228 l -199 1228 z "},"ং":{"ha":598,"x_min":52,"x_max":549,"o":"m 486 -54 q 305 172 415 67 q 52 361 195 278 l 88 424 q 357 225 240 338 q 549 -18 473 112 l 486 -54 l 486 -54 m 305 524 q 158 582 219 524 q 98 722 98 639 q 158 863 98 806 q 305 921 219 921 q 452 863 392 921 q 513 722 513 806 q 452 582 513 639 q 305 524 392 524 l 305 524 m 305 596 q 401 633 361 596 q 441 722 441 670 q 401 812 441 775 q 305 849 361 849 q 210 812 249 849 q 170 722 170 775 q 210 633 170 670 q 305 596 249 596 l 305 596 z "},"ঃ":{"ha":740,"x_min":163,"x_max":578,"o":"m 370 -18 q 223 40 284 -18 q 163 181 163 98 q 223 321 163 264 q 370 379 284 379 q 517 321 457 379 q 578 181 578 264 q 517 40 578 98 q 370 -18 457 -18 l 370 -18 m 370 54 q 466 91 426 54 q 506 181 506 128 q 466 270 506 233 q 370 307 426 307 q 275 270 314 307 q 235 181 235 233 q 275 91 235 128 q 370 54 314 54 l 370 54 m 370 524 q 223 582 284 524 q 163 722 163 639 q 223 863 163 806 q 370 921 284 921 q 517 863 457 921 q 578 722 578 806 q 517 582 578 639 q 370 524 457 524 l 370 524 m 370 596 q 466 633 426 596 q 506 722 506 670 q 466 812 506 775 q 370 849 426 849 q 275 812 314 849 q 235 722 235 775 q 275 633 235 670 q 370 596 314 596 l 370 596 z "},"অ":{"ha":1203,"x_min":-18,"x_max":1221,"o":"m 968 0 l 968 190 q 890 271 934 238 q 796 316 845 303 q 685 191 760 238 q 517 144 609 144 q 219 288 352 144 q 47 650 85 432 l 119 659 q 265 342 154 468 q 517 217 377 217 q 676 277 610 217 q 742 424 742 338 q 685 578 742 515 q 544 641 627 641 q 555 620 551 632 q 560 598 560 609 q 531 526 560 556 q 461 497 502 497 q 386 526 417 497 q 354 596 354 554 q 386 669 354 638 q 462 704 417 701 q 446 779 462 744 q 399 840 430 815 l -18 840 l -18 903 l 1221 903 l 1221 840 l 1040 840 l 1040 0 l 968 0 l 968 0 m 968 280 l 968 840 l 489 840 q 523 787 511 820 q 535 713 535 755 q 735 629 652 713 q 818 423 818 544 q 817 407 818 415 q 815 388 816 399 q 905 342 865 370 q 968 280 945 314 l 968 280 z "},"আ":{"ha":1620,"x_min":-18,"x_max":1638,"o":"m 968 0 l 968 190 q 890 271 934 238 q 796 316 845 303 q 685 191 760 238 q 517 144 609 144 q 219 288 352 144 q 47 650 85 432 l 119 659 q 265 342 154 468 q 517 217 377 217 q 676 277 610 217 q 742 424 742 338 q 685 578 742 515 q 544 641 627 641 q 555 620 551 632 q 560 598 560 609 q 531 526 560 556 q 461 497 502 497 q 386 526 417 497 q 354 596 354 554 q 386 669 354 638 q 462 704 417 701 q 446 779 462 744 q 399 840 430 815 l -18 840 l -18 903 l 1250 903 q 1329 879 1293 903 q 1385 813 1365 854 l 1385 1011 l 1458 1011 l 1458 903 l 1638 903 l 1638 840 l 1458 840 l 1458 0 l 1385 0 l 1385 605 q 1337 772 1376 704 q 1250 840 1299 840 l 1040 840 l 1040 0 l 968 0 l 968 0 m 968 280 l 968 840 l 489 840 q 523 787 511 820 q 535 713 535 755 q 735 629 652 713 q 818 423 818 544 q 817 407 818 415 q 815 388 816 399 q 905 342 865 370 q 968 280 945 314 l 968 280 z "},"ই":{"ha":722,"x_min":-18,"x_max":771,"o":"m 699 -172 q 445 92 621 -5 q 49 190 269 190 l 40 262 l 175 253 q 431 316 325 253 q 536 470 536 379 q 479 584 536 536 q 338 632 421 632 q 298 530 338 573 q 202 488 258 488 q 119 514 154 488 q 85 578 85 540 q 135 667 85 630 q 256 704 186 704 q 231 777 249 742 q 184 840 213 811 l -18 840 l -18 903 l 564 903 q 526 1005 564 963 q 437 1048 489 1048 q 311 1029 394 1048 q 184 1011 228 1011 q 82 1051 125 1011 q 40 1147 40 1091 q 59 1216 40 1183 q 112 1273 78 1250 l 175 1237 q 129 1199 146 1221 q 112 1156 112 1178 q 133 1104 112 1125 q 184 1084 154 1084 q 311 1102 228 1084 q 437 1120 394 1120 q 578 1057 520 1120 q 636 903 636 993 l 740 903 l 740 840 l 275 840 q 310 768 296 802 q 329 704 323 733 q 528 626 448 694 q 609 470 609 558 q 537 308 609 379 q 356 217 466 237 q 584 93 477 184 q 771 -135 692 2 l 699 -172 l 699 -172 z "},"ঈ":{"ha":907,"x_min":-18,"x_max":925,"o":"m 753 -9 q 673 126 701 43 q 645 307 645 208 q 670 467 645 388 q 744 614 695 545 q 588 521 656 582 q 482 379 520 461 q 374 235 441 289 q 238 181 307 181 q 124 223 172 181 q 76 325 76 265 q 88 379 81 359 q 103 406 96 399 l 157 379 q 151 356 154 367 q 148 334 148 345 q 174 276 148 300 q 238 253 200 253 q 348 314 289 253 q 455 479 406 376 q 385 602 428 554 q 293 659 341 650 q 265 572 302 610 q 175 533 229 533 q 105 559 134 533 q 76 623 76 585 q 115 702 76 668 q 211 740 154 735 q 199 787 210 746 q 175 840 188 829 l -18 840 l -18 903 l 708 903 q 663 1005 708 963 q 554 1048 618 1048 q 401 1029 502 1048 q 247 1011 300 1011 q 126 1059 177 1011 q 76 1174 76 1107 q 98 1252 76 1216 q 157 1309 119 1288 l 211 1273 q 164 1222 181 1248 q 148 1174 148 1196 q 177 1110 148 1136 q 247 1084 206 1084 q 401 1102 300 1084 q 554 1120 502 1120 q 714 1057 648 1120 q 780 903 780 993 l 925 903 l 925 840 l 256 840 q 275 791 267 816 q 284 740 282 766 q 420 675 359 728 q 509 542 480 621 q 651 648 578 610 q 789 686 724 686 l 834 614 q 748 478 778 558 q 717 307 717 397 q 743 127 717 204 q 816 18 769 51 l 753 -9 l 753 -9 z "},"উ":{"ha":1082,"x_min":-18,"x_max":1100,"o":"m -18 840 l -18 903 l 836 903 q 786 1018 836 970 q 665 1066 735 1066 q 493 1048 607 1066 q 321 1029 379 1029 q 188 1083 244 1029 q 132 1210 132 1136 q 154 1294 132 1255 q 213 1355 175 1333 l 267 1309 q 220 1258 237 1284 q 204 1210 204 1232 q 238 1133 204 1165 q 321 1102 273 1102 q 489 1120 377 1102 q 656 1138 600 1138 q 834 1069 760 1138 q 908 903 908 1001 l 1100 903 l 1100 840 l 547 840 l 547 578 q 571 495 547 529 q 629 461 594 461 q 731 522 675 461 q 836 686 787 583 q 955 588 910 659 q 999 424 999 517 q 877 150 999 264 q 583 36 755 36 q 219 227 370 36 q 69 686 69 417 l 141 695 q 271 280 141 452 q 583 108 401 108 q 826 201 726 108 q 927 424 927 294 q 910 512 927 471 q 863 578 894 553 q 750 439 813 489 q 629 388 686 388 q 520 444 565 388 q 475 578 475 500 l 475 840 l -18 840 l -18 840 z "},"ঊ":{"ha":1179,"x_min":-18,"x_max":1197,"o":"m -18 840 l -18 903 l 916 903 q 868 1011 916 966 q 753 1057 820 1057 q 577 1029 694 1057 q 401 1002 461 1002 q 267 1053 323 1002 q 211 1174 211 1104 q 243 1275 211 1226 q 329 1355 275 1324 l 374 1300 q 308 1243 332 1277 q 284 1174 284 1208 q 318 1104 284 1132 q 401 1075 352 1075 q 577 1102 461 1075 q 753 1129 694 1129 q 919 1063 851 1129 q 988 903 988 997 l 1197 903 l 1197 840 l 645 840 l 645 578 q 666 495 645 529 q 717 461 686 461 q 815 519 762 461 q 916 677 869 578 q 1048 551 999 629 q 1096 388 1096 473 q 978 126 1096 224 q 663 27 860 27 q 235 201 412 27 q 58 623 58 376 l 121 623 q 249 287 121 439 q 582 81 377 135 q 343 325 430 168 q 256 668 256 482 l 329 668 q 448 279 329 441 q 735 117 567 117 q 939 194 854 117 q 1024 379 1024 271 q 1001 483 1024 433 q 934 569 977 533 q 837 437 896 486 q 717 388 778 388 q 615 444 657 388 q 573 578 573 500 l 573 840 l -18 840 l -18 840 z "},"ঋ":{"ha":1149,"x_min":22,"x_max":1167,"o":"m 681 0 q 491 232 614 143 q 220 334 368 321 l 166 406 q 375 569 262 502 q 609 668 488 636 q 486 716 540 681 q 401 804 432 751 q 293 697 354 735 q 175 659 233 659 q 67 702 112 659 q 22 804 22 744 q 48 874 22 845 q 112 903 74 903 q 163 884 143 903 q 184 840 184 865 q 171 796 184 815 q 139 777 157 777 l 121 777 q 140 751 121 762 q 184 740 159 740 q 281 791 224 740 q 401 930 338 842 q 517 786 442 840 q 672 731 591 731 l 672 903 l 744 903 l 744 461 q 865 387 815 428 q 943 298 916 345 l 943 1011 l 1015 1011 l 1015 903 l 1167 903 l 1167 840 l 1015 840 l 1015 144 l 961 144 q 887 275 943 211 q 744 388 831 340 l 744 0 l 681 0 l 681 0 m 672 144 l 672 605 q 435 517 538 569 q 265 397 332 464 q 488 321 381 387 q 672 144 594 255 l 672 144 z "},"ঌ":{"ha":836,"x_min":70,"x_max":766,"o":"m 152 813 q 163 861 152 834 q 197 912 175 887 l 260 876 q 240 846 247 865 q 233 804 233 827 q 295 690 233 748 q 459 596 358 632 q 682 461 598 545 q 766 289 766 377 q 697 100 766 182 q 522 0 629 18 l 459 54 q 487 135 479 107 q 495 181 495 164 q 444 302 495 251 q 323 352 394 352 q 196 307 249 352 q 143 199 143 262 q 163 133 143 163 q 215 90 182 103 q 238 148 215 125 q 296 172 262 172 q 360 148 334 172 q 387 90 387 125 q 352 26 387 52 q 269 0 318 0 q 128 58 186 0 q 70 199 70 116 q 144 359 70 293 q 323 424 219 424 q 496 353 424 424 q 567 181 567 282 q 563 129 567 152 q 549 90 558 107 q 647 167 610 112 q 685 289 685 222 q 608 427 685 358 q 405 542 531 497 q 221 657 291 583 q 152 813 152 731 l 152 813 z "},"এ":{"ha":1057,"x_min":81,"x_max":894,"o":"m 822 0 q 741 148 815 88 q 567 208 668 208 q 451 194 527 208 q 334 181 374 181 q 155 271 229 181 q 81 488 81 361 q 95 596 81 544 q 135 695 108 648 l 199 659 q 165 577 177 621 q 154 488 154 533 q 207 321 154 390 q 334 253 260 253 q 452 266 374 253 q 569 280 529 280 q 720 246 652 280 q 822 152 787 211 l 822 759 q 796 816 822 793 q 731 840 769 840 q 551 750 641 840 q 461 569 461 659 q 485 577 471 574 q 513 580 498 580 q 584 555 554 580 q 614 497 614 531 q 582 433 614 459 q 506 406 551 406 q 423 449 457 406 q 388 551 388 491 q 499 795 388 677 q 731 912 610 912 q 846 862 798 912 q 894 740 894 811 l 894 0 l 822 0 l 822 0 z "},"ঐ":{"ha":1116,"x_min":70,"x_max":1100,"o":"m 811 0 q 710 144 787 88 q 531 199 632 199 q 436 190 498 199 q 341 181 374 181 q 150 257 229 181 q 70 442 70 334 q 87 546 70 495 q 134 641 103 598 l 197 605 q 156 526 170 567 q 143 442 143 484 q 200 309 143 365 q 341 253 258 253 q 436 262 374 253 q 531 271 498 271 q 686 230 612 271 q 811 117 760 190 l 811 722 q 787 806 811 771 q 730 840 764 840 q 541 737 632 840 q 450 524 450 634 q 479 544 462 536 q 513 551 495 551 q 571 530 547 551 q 594 479 594 509 q 568 414 594 441 q 504 388 542 388 q 414 431 452 388 q 377 533 377 473 q 492 789 377 666 q 730 912 607 912 q 838 859 793 912 q 883 731 883 806 l 883 668 q 987 733 946 679 q 1028 858 1028 787 q 943 992 1028 936 q 739 1048 858 1048 q 489 1108 592 1048 q 387 1255 387 1169 q 396 1294 387 1275 q 423 1327 405 1313 l 486 1300 q 466 1281 473 1293 q 459 1255 459 1270 q 546 1160 459 1199 q 757 1120 634 1120 q 1000 1043 899 1120 q 1100 858 1100 966 q 1039 694 1100 768 q 883 596 979 621 l 883 0 l 811 0 l 811 0 z "},"ও":{"ha":1022,"x_min":61,"x_max":919,"o":"m 594 -18 q 240 177 394 -18 q 61 659 87 372 l 134 668 q 289 231 157 408 q 594 54 421 54 q 773 112 699 54 q 847 253 847 170 q 805 371 847 318 q 694 442 762 424 q 635 415 663 424 q 585 406 607 406 q 527 425 551 406 q 504 470 504 444 q 525 521 504 500 q 576 542 545 542 q 640 535 610 542 q 694 515 670 527 q 767 592 740 547 q 793 686 793 638 q 735 788 793 746 q 594 831 677 831 q 467 808 520 831 q 405 750 414 786 q 461 731 437 755 q 486 668 486 706 q 460 617 486 638 q 396 596 433 596 q 338 625 361 596 q 314 695 314 654 q 396 843 314 782 q 594 903 479 903 q 786 840 706 903 q 865 686 865 777 q 842 569 865 623 q 775 479 818 515 q 880 387 842 448 q 919 253 919 325 q 824 61 919 141 q 594 -18 730 -18 l 594 -18 z "},"ঔ":{"ha":1140,"x_min":63,"x_max":1120,"o":"m 596 -18 q 242 180 396 -18 q 63 668 88 377 l 135 677 q 292 234 159 414 q 596 54 424 54 q 775 112 701 54 q 849 253 849 170 q 806 371 849 318 q 695 442 764 424 q 637 415 665 424 q 587 406 609 406 q 529 425 553 406 q 506 470 506 444 q 529 521 506 500 q 587 542 553 542 q 638 535 612 542 q 686 515 663 527 q 759 591 733 547 q 786 677 786 634 q 728 798 786 748 q 587 849 670 849 q 464 824 517 849 q 397 759 412 800 q 468 735 439 759 q 497 677 497 712 q 468 613 497 639 q 397 587 439 587 q 333 621 359 587 q 307 704 307 656 q 392 852 307 791 q 596 912 477 912 q 781 843 704 912 q 858 677 858 775 q 992 722 936 677 q 1048 831 1048 768 q 962 962 1048 905 q 750 1029 876 1019 q 467 1121 582 1044 q 352 1295 352 1197 q 355 1320 352 1309 q 361 1337 358 1331 l 442 1337 q 436 1315 439 1324 q 433 1300 433 1306 q 535 1165 433 1225 q 786 1093 636 1105 q 1024 1005 928 1080 q 1120 831 1120 930 q 1039 671 1120 737 q 845 605 959 605 q 823 547 843 578 q 768 488 802 517 q 880 391 838 455 q 921 253 921 327 q 826 61 921 141 q 596 -18 731 -18 l 596 -18 z "},"ক":{"ha":972,"x_min":-18,"x_max":990,"o":"m 491 0 q 333 245 437 148 q 103 361 229 341 l 31 424 q 243 633 123 554 q 491 722 363 712 l 491 840 l -18 840 l -18 903 l 990 903 l 990 840 l 564 840 l 564 722 q 808 619 710 710 q 907 406 907 527 q 868 292 907 340 q 773 244 829 244 q 702 267 731 244 q 672 325 672 291 q 699 389 672 363 q 766 415 726 415 q 801 412 784 415 q 831 403 818 408 q 834 412 833 406 q 834 424 834 417 q 752 573 834 504 q 564 650 670 641 l 564 0 l 491 0 l 491 0 m 491 144 l 491 650 q 290 584 385 641 q 130 433 195 527 q 348 325 253 401 q 491 144 442 249 l 491 144 z "},"খ":{"ha":912,"x_min":9,"x_max":930,"o":"m 677 0 q 488 293 629 181 q 172 406 347 406 l 172 470 q 372 571 293 491 q 452 750 452 650 q 440 808 452 782 q 406 849 428 834 q 293 736 356 777 q 172 695 231 695 q 57 735 105 695 q 9 831 9 775 q 35 901 9 872 q 99 930 61 930 q 157 909 134 930 q 181 858 181 889 q 163 816 181 836 q 117 786 146 796 q 142 772 128 777 q 170 768 155 768 q 244 789 208 768 q 307 849 280 811 q 357 902 331 883 q 406 921 383 921 q 489 868 455 921 q 524 740 524 815 q 470 564 524 643 q 325 452 415 484 q 527 353 433 432 q 677 154 621 275 l 677 1011 l 750 1011 l 750 903 l 930 903 l 930 840 l 750 840 l 750 0 l 677 0 l 677 0 z "},"গ":{"ha":910,"x_min":52,"x_max":928,"o":"m 675 0 l 675 578 q 562 767 645 694 q 377 840 479 840 q 199 763 273 840 q 125 578 125 686 q 206 638 164 618 q 287 659 247 659 q 434 603 374 659 q 495 470 495 547 q 431 329 495 399 q 260 208 367 258 l 224 271 q 368 367 314 312 q 423 470 423 421 q 383 553 423 518 q 287 587 343 587 q 206 546 255 587 q 125 506 157 506 q 73 529 94 506 q 52 587 52 553 q 147 817 52 722 q 377 912 242 912 q 545 862 464 912 q 675 722 625 811 l 675 1011 l 748 1011 l 748 903 l 928 903 l 928 840 l 748 840 l 748 0 l 675 0 l 675 0 z "},"ঘ":{"ha":858,"x_min":-18,"x_max":876,"o":"m 623 0 q 433 217 562 132 q 144 316 305 302 l 90 370 l 253 515 q 116 581 170 529 q 63 695 63 632 q 85 775 63 737 q 144 840 107 813 l -18 840 l -18 903 l 876 903 l 876 840 l 695 840 l 695 0 l 623 0 l 623 0 m 623 126 l 623 840 l 253 840 q 167 770 199 809 q 135 695 135 731 q 175 619 135 650 q 271 587 215 587 q 316 591 296 587 q 352 605 336 596 l 424 668 l 470 614 l 208 379 q 460 288 350 354 q 623 126 569 222 l 623 126 z "},"ঙ":{"ha":1019,"x_min":69,"x_max":936,"o":"m 574 -27 q 217 166 365 -27 q 69 632 69 359 l 141 632 q 268 217 141 388 q 574 45 396 45 q 778 119 694 45 q 863 298 863 193 q 837 406 863 361 q 773 452 811 452 q 741 425 762 452 q 701 379 721 399 q 638 320 674 341 q 565 298 601 298 q 424 356 482 298 q 367 497 367 414 q 374 589 367 545 q 394 668 381 632 q 269 751 329 699 q 159 876 210 804 l 222 921 q 321 802 271 851 q 421 731 372 753 q 537 863 470 815 q 674 912 605 912 q 782 872 737 912 q 827 777 827 833 q 761 645 827 703 q 610 587 695 587 q 535 599 574 587 q 457 632 495 610 q 443 582 448 616 q 439 497 439 547 q 476 407 439 444 q 565 370 513 370 q 616 392 589 370 q 665 452 643 414 q 717 505 688 486 q 773 524 746 524 q 888 452 840 524 q 936 280 936 381 q 830 63 936 154 q 574 -27 724 -27 l 574 -27 m 610 659 q 713 691 670 659 q 755 768 755 722 q 731 819 755 798 q 674 840 708 840 q 573 801 621 840 q 493 695 524 762 q 554 668 524 677 q 610 659 583 659 l 610 659 z "},"চ":{"ha":750,"x_min":-18,"x_max":768,"o":"m 312 25 q 198 79 246 25 q 150 206 150 132 l 150 840 l -18 840 l -18 903 l 768 903 l 768 840 l 222 840 l 222 777 q 299 666 222 726 q 502 562 376 607 q 639 486 587 531 q 692 399 692 441 q 561 154 692 284 q 312 25 430 25 l 312 25 m 222 206 q 246 129 222 161 q 303 98 269 98 q 510 201 401 98 q 619 399 619 305 q 582 449 619 421 q 484 498 545 477 q 300 575 363 542 q 222 641 237 609 l 222 206 l 222 206 z "},"ছ":{"ha":842,"x_min":-18,"x_max":905,"o":"m 851 -199 q 638 38 782 -51 q 318 126 493 126 q 250 125 271 126 q 219 117 229 123 l 182 208 q 238 200 200 202 q 336 199 275 199 q 566 289 471 199 q 661 506 661 379 q 632 582 661 551 q 562 614 603 614 q 500 582 535 614 q 435 497 466 551 q 340 365 397 414 q 228 316 284 316 q 138 359 175 316 q 101 461 101 401 l 101 840 l -18 840 l -18 903 l 860 903 l 860 840 l 173 840 l 173 822 q 211 744 173 778 q 309 699 249 710 q 396 673 359 690 q 444 632 432 656 q 497 672 466 657 q 562 686 527 686 q 683 633 632 686 q 733 506 733 580 q 672 304 733 397 q 508 163 610 211 q 743 40 639 128 q 905 -172 847 -49 l 851 -199 l 851 -199 m 228 388 q 310 435 265 388 q 390 560 354 482 q 359 608 390 585 q 282 641 329 630 q 210 668 238 652 q 173 704 181 685 l 173 461 q 190 409 173 430 q 228 388 206 388 l 228 388 z "},"জ":{"ha":1243,"x_min":-18,"x_max":1261,"o":"m 1073 0 q 1019 158 1037 76 q 1001 325 1001 240 q 1012 452 1001 388 q 1046 578 1024 517 q 987 566 1015 571 q 932 562 959 562 q 689 630 796 562 q 540 813 582 699 q 460 700 488 760 q 432 578 432 639 q 471 501 432 533 q 567 470 511 470 q 630 483 589 470 q 694 497 672 497 q 802 452 757 497 q 847 343 847 406 q 757 164 847 238 q 540 90 666 90 q 202 260 343 90 q 61 668 61 430 l 134 668 q 257 316 134 470 q 540 163 381 163 q 706 216 638 163 q 775 343 775 269 q 754 401 775 377 q 703 424 733 424 q 635 411 679 424 q 567 397 591 397 q 420 451 480 397 q 359 578 359 504 q 387 720 359 652 q 468 840 415 787 l -18 840 l -18 903 l 1261 903 l 1261 840 l 612 840 q 731 694 645 750 q 927 639 818 639 q 1003 647 964 639 q 1082 668 1042 654 l 1145 623 q 1091 471 1109 547 q 1073 325 1073 396 q 1091 158 1073 240 q 1145 0 1109 76 l 1073 0 l 1073 0 z "},"ঝ":{"ha":1051,"x_min":-18,"x_max":1069,"o":"m 31 452 q 271 627 137 558 q 554 722 405 695 l 554 840 l -18 840 l -18 903 l 627 903 l 627 415 q 747 330 697 376 q 825 235 796 284 l 825 1011 l 898 1011 l 898 903 l 1069 903 l 1069 840 l 898 840 l 898 45 l 825 45 q 771 207 825 130 q 627 325 717 284 l 627 0 l 554 0 q 387 232 520 128 q 58 388 255 336 l 31 452 l 31 452 m 554 154 l 554 641 q 312 567 421 618 q 130 442 204 517 q 386 321 276 396 q 554 154 495 246 l 554 154 z "},"ঞ":{"ha":1467,"x_min":79,"x_max":1371,"o":"m 811 0 q 753 127 811 74 q 612 181 695 181 q 495 158 573 181 q 377 135 417 135 q 167 226 255 135 q 79 442 79 316 q 96 567 79 511 q 143 659 112 623 l 206 623 q 165 548 179 592 q 152 452 152 504 q 218 279 152 350 q 377 208 284 208 q 495 232 417 208 q 612 256 573 256 q 724 229 672 256 q 811 154 777 202 l 811 777 q 792 828 811 807 q 748 849 773 849 q 582 752 661 849 q 513 560 504 656 q 535 569 524 565 q 556 573 545 573 q 602 553 583 573 q 621 506 621 533 q 601 461 621 480 q 549 442 580 442 q 466 482 500 442 q 432 578 432 522 q 535 810 432 699 q 748 921 638 921 q 843 879 804 921 q 883 777 883 836 l 883 740 q 1004 872 932 824 q 1154 921 1076 921 q 1308 873 1244 921 q 1371 759 1371 825 q 1349 657 1371 704 q 1290 578 1327 610 q 1349 515 1327 556 q 1371 424 1371 473 q 1308 277 1371 338 q 1154 217 1244 217 q 1001 263 1075 217 q 883 388 928 309 l 883 0 l 811 0 l 811 0 m 1154 289 q 1256 329 1214 289 q 1299 424 1299 368 q 1274 493 1299 459 q 1208 551 1250 527 q 1172 524 1190 533 q 1136 515 1154 515 q 1078 536 1102 515 q 1055 587 1055 556 q 1078 638 1055 618 q 1136 659 1102 659 q 1169 650 1150 659 q 1208 623 1187 641 q 1274 675 1250 638 q 1299 759 1299 712 q 1256 829 1299 800 q 1154 858 1214 858 q 1009 792 1082 858 q 883 614 936 726 l 883 524 q 996 353 921 417 q 1154 289 1071 289 l 1154 289 z "},"ট":{"ha":757,"x_min":-18,"x_max":775,"o":"m -18 840 l -18 903 l 578 903 q 624 958 607 925 q 641 1029 641 992 q 604 1094 641 1067 q 515 1120 567 1120 q 357 1102 462 1120 q 199 1084 251 1084 q 103 1123 143 1084 q 63 1219 63 1163 q 96 1298 63 1261 q 181 1355 128 1335 l 217 1300 q 158 1269 181 1291 q 135 1219 135 1246 q 154 1175 135 1194 q 199 1156 173 1156 q 361 1174 253 1156 q 524 1192 470 1192 q 657 1144 601 1192 q 713 1029 713 1096 q 702 957 713 990 q 668 903 690 925 l 775 903 l 775 840 l 217 840 l 217 253 q 240 157 217 197 q 298 117 264 117 q 493 247 381 117 q 605 470 605 376 q 522 493 556 470 q 488 551 488 517 q 517 615 488 589 q 587 641 545 641 q 657 607 629 641 q 686 524 686 573 q 560 200 686 356 q 298 45 433 45 q 190 106 235 45 q 144 253 144 166 l 144 840 l -18 840 l -18 840 z "},"ঠ":{"ha":742,"x_min":-18,"x_max":760,"o":"m 356 45 q 139 140 229 45 q 49 370 49 235 q 244 490 168 403 q 320 686 320 578 q 312 782 320 742 q 293 840 305 822 l -18 840 l -18 903 l 238 903 q 111 1061 155 986 q 67 1192 67 1136 q 94 1289 67 1244 q 166 1355 121 1333 l 220 1318 q 161 1253 182 1286 q 139 1192 139 1219 q 189 1069 139 1145 q 329 903 238 993 l 760 903 l 760 840 l 383 840 q 583 581 513 710 q 654 343 654 452 q 566 133 654 220 q 356 45 479 45 l 356 45 m 356 117 q 516 183 450 117 q 582 343 582 249 q 533 522 582 423 q 392 731 484 621 q 329 480 405 596 q 121 316 253 365 q 196 174 128 231 q 356 117 264 117 l 356 117 z "},"ড":{"ha":1022,"x_min":-18,"x_max":1040,"o":"m -18 840 l -18 903 l 1040 903 l 1040 840 l 489 840 l 489 542 q 510 459 489 493 q 562 424 531 424 q 660 483 607 424 q 760 641 713 542 q 890 546 840 619 q 941 379 941 473 q 833 124 941 220 q 544 27 724 27 q 205 199 345 27 q 65 614 65 370 l 137 632 q 256 256 137 412 q 544 99 376 99 q 774 179 679 99 q 869 370 869 258 q 847 470 869 424 q 787 542 825 515 q 686 404 748 455 q 562 352 625 352 q 460 408 502 352 q 417 542 417 464 l 417 840 l -18 840 l -18 840 z "},"ঢ":{"ha":786,"x_min":-18,"x_max":804,"o":"m -18 840 l -18 903 l 804 903 l 804 840 l 217 840 l 217 253 q 246 157 217 197 q 316 117 275 117 q 493 239 377 117 q 632 452 609 361 q 543 478 580 452 q 506 542 506 504 q 535 612 506 583 q 605 641 564 641 q 688 607 654 641 q 722 524 722 573 q 578 215 722 385 q 316 45 433 45 q 195 106 246 45 q 144 253 144 166 l 144 840 l -18 840 l -18 840 z "},"ণ":{"ha":840,"x_min":63,"x_max":858,"o":"m 605 0 l 605 551 q 531 761 605 674 q 352 849 457 849 q 199 791 262 849 q 135 650 135 733 q 169 530 135 582 q 253 470 202 479 q 267 545 242 511 q 334 578 293 578 q 398 552 372 578 q 424 488 424 526 q 390 417 424 446 q 307 388 356 388 q 135 465 206 388 q 63 650 63 542 q 148 842 63 762 q 352 921 233 921 q 504 880 435 921 q 605 768 573 838 l 605 1011 l 677 1011 l 677 903 l 858 903 l 858 840 l 677 840 l 677 0 l 605 0 l 605 0 z "},"ত":{"ha":1042,"x_min":-18,"x_max":1060,"o":"m 571 -18 q 213 162 361 -18 q 65 596 65 341 l 137 605 q 265 210 137 374 q 571 45 392 45 q 794 135 701 45 q 887 352 887 226 q 813 525 887 453 q 634 596 739 596 q 541 573 580 596 q 498 515 502 549 q 515 518 506 517 q 533 520 524 520 q 598 495 571 520 q 625 433 625 470 q 596 369 625 396 q 526 343 567 343 q 442 380 477 343 q 408 470 408 417 q 474 610 408 553 q 634 668 540 668 q 864 575 769 668 q 959 352 959 482 q 845 90 959 199 q 571 -18 731 -18 l 571 -18 m -18 840 l -18 903 l 1060 903 l 1060 840 l -18 840 l -18 840 z "},"থ":{"ha":899,"x_min":42,"x_max":917,"o":"m 665 0 q 452 264 589 163 q 150 379 314 365 l 132 470 q 163 462 143 464 q 231 461 184 461 q 410 524 336 461 q 484 677 484 587 q 428 798 484 748 q 294 849 372 849 q 210 834 247 849 q 150 795 172 820 q 223 768 193 795 q 253 704 253 742 q 223 640 253 666 q 150 614 193 614 q 73 646 105 614 q 42 722 42 677 q 116 863 42 806 q 294 921 190 921 q 480 850 403 921 q 556 677 556 778 q 497 517 556 591 q 340 406 437 442 q 517 309 432 381 q 665 126 601 237 l 665 1011 l 737 1011 l 737 903 l 917 903 l 917 840 l 737 840 l 737 0 l 665 0 l 665 0 z "},"দ":{"ha":730,"x_min":-18,"x_max":748,"o":"m 585 -9 q 505 135 533 54 q 477 307 477 217 q 495 471 477 397 q 549 596 513 545 q 336 480 433 554 q 170 307 238 406 l 98 343 l 98 840 l -18 840 l -18 903 l 748 903 l 748 840 l 170 840 l 170 415 q 370 588 258 520 q 603 677 482 656 l 648 623 q 574 484 600 565 q 549 307 549 403 q 573 138 549 215 q 639 9 596 61 l 585 -9 l 585 -9 z "},"ধ":{"ha":778,"x_min":56,"x_max":796,"o":"m 544 0 q 350 238 468 150 q 110 325 233 325 l 56 415 l 282 605 q 128 658 191 605 q 65 786 65 712 q 128 913 65 860 q 282 966 191 966 q 365 937 331 966 q 399 867 399 908 q 368 796 399 825 q 291 768 336 768 q 218 797 247 768 q 191 867 188 827 q 153 840 168 863 q 137 786 137 816 q 200 696 137 733 q 354 659 264 659 l 544 795 l 544 1011 l 616 1011 l 616 903 l 796 903 l 796 840 l 616 840 l 616 0 l 544 0 l 544 0 m 544 126 l 544 713 l 146 397 q 356 317 251 388 q 544 126 461 246 l 544 126 z "},"ন":{"ha":829,"x_min":-18,"x_max":847,"o":"m 594 0 l 594 280 q 492 468 574 394 q 305 542 410 542 q 219 525 256 542 q 170 479 182 508 q 259 447 222 479 q 296 370 296 415 q 260 300 296 329 q 173 271 224 271 q 88 305 123 271 q 52 388 52 340 q 126 548 52 482 q 305 614 200 614 q 475 573 397 614 q 594 461 553 531 l 594 840 l -18 840 l -18 903 l 847 903 l 847 840 l 666 840 l 666 0 l 594 0 l 594 0 z "},"প":{"ha":943,"x_min":31,"x_max":961,"o":"m 708 0 l 708 569 q 663 628 692 596 q 591 695 634 659 l 284 334 l 229 379 l 320 488 q 247 581 300 542 q 121 632 193 619 q 95 592 110 607 q 67 578 79 578 q 42 586 52 578 q 31 605 31 594 q 171 800 45 688 q 374 912 296 912 q 526 851 439 912 q 708 677 614 789 l 708 1011 l 780 1011 l 780 903 l 961 903 l 961 840 l 780 840 l 780 0 l 708 0 l 708 0 m 365 542 l 545 740 q 458 807 502 784 q 374 831 414 831 q 272 793 329 831 q 157 686 215 755 q 284 636 229 674 q 365 542 340 598 l 365 542 z "},"ফ":{"ha":1015,"x_min":-18,"x_max":1033,"o":"m -18 840 l -18 903 l 1033 903 l 1033 840 l 210 840 l 390 650 l 128 424 q 364 310 258 390 q 535 117 470 229 l 535 704 l 688 704 q 873 630 796 704 q 950 452 950 556 q 921 381 950 410 q 851 352 892 352 q 780 376 809 352 q 751 433 751 399 q 783 504 751 475 q 860 533 815 533 q 812 603 860 574 q 697 632 764 632 l 607 632 l 607 0 l 535 0 q 319 261 441 163 q 74 370 197 359 l 29 433 l 291 659 l 110 840 l -18 840 l -18 840 z "},"ব":{"ha":773,"x_min":-18,"x_max":791,"o":"m 538 0 q 360 242 486 143 q 69 370 235 341 l 33 452 q 258 620 130 549 q 538 731 387 692 l 538 840 l -18 840 l -18 903 l 791 903 l 791 840 l 610 840 l 610 0 l 538 0 l 538 0 m 538 144 l 538 659 q 306 568 412 625 q 123 433 200 511 q 348 338 240 414 q 538 144 455 262 l 538 144 z "},"ভ":{"ha":1035,"x_min":-18,"x_max":1053,"o":"m 601 -18 q 231 201 385 -18 q 78 731 78 421 l 150 740 q 282 256 150 457 q 601 54 414 54 q 799 128 717 54 q 881 307 881 202 q 857 409 881 363 q 791 479 833 455 q 699 376 760 414 q 564 338 638 338 q 399 389 468 338 q 331 515 331 441 q 365 598 331 564 q 448 632 399 632 q 512 606 486 632 q 538 542 538 580 q 512 484 538 508 q 448 461 486 461 q 502 424 471 437 q 564 410 533 410 q 693 461 638 410 q 755 587 748 511 q 899 478 845 554 q 954 307 954 401 q 857 70 954 159 q 601 -18 760 -18 l 601 -18 m -18 840 l -18 903 l 1053 903 l 1053 840 l -18 840 l -18 840 z "},"ম":{"ha":771,"x_min":-18,"x_max":789,"o":"m 536 0 q 463 235 536 135 q 284 343 390 334 q 254 248 289 289 q 166 208 219 208 q 89 239 121 208 q 58 316 58 271 q 100 399 58 365 q 202 433 143 433 q 166 687 202 580 q 67 840 130 795 l -18 840 l -18 903 l 789 903 l 789 840 l 609 840 l 609 0 l 536 0 l 536 0 m 536 253 l 536 840 l 157 840 q 244 665 213 771 q 275 424 275 558 q 430 365 361 410 q 536 253 498 320 l 536 253 z "},"য":{"ha":800,"x_min":-18,"x_max":818,"o":"m 565 0 q 393 199 524 114 q 78 316 262 284 l 33 379 l 294 623 l 69 840 l -18 840 l -18 903 l 818 903 l 818 840 l 638 840 l 638 0 l 565 0 l 565 0 m 565 126 l 565 840 l 177 840 l 403 623 l 141 379 q 387 290 276 356 q 565 126 497 224 l 565 126 z "},"র":{"ha":764,"x_min":-18,"x_max":782,"o":"m 529 0 q 356 244 477 144 q 78 370 235 343 l 42 442 q 234 611 108 536 q 529 731 359 686 l 529 840 l -18 840 l -18 903 l 782 903 l 782 840 l 601 840 l 601 0 l 529 0 l 529 0 m 529 144 l 529 659 q 288 565 392 623 q 123 433 184 508 q 356 336 249 412 q 529 144 462 260 l 529 144 m 213 18 q 162 39 182 18 q 141 90 141 60 q 162 142 141 121 q 213 163 182 163 q 265 142 244 163 q 285 90 285 121 q 265 39 285 60 q 213 18 244 18 l 213 18 z "},"ল":{"ha":1035,"x_min":-18,"x_max":1053,"o":"m 800 0 l 800 470 q 740 587 780 542 q 656 632 701 632 q 579 590 610 632 q 547 488 547 547 l 475 488 q 425 591 470 549 q 321 632 381 632 q 194 579 247 632 q 141 452 141 526 q 186 331 141 381 q 294 280 231 280 q 280 302 285 289 q 275 327 275 314 q 304 396 275 367 q 376 424 334 424 q 446 396 417 424 q 475 325 475 367 q 427 242 475 276 q 312 208 379 208 q 140 279 211 208 q 69 452 69 350 q 143 630 69 556 q 321 704 217 704 q 436 675 385 704 q 511 596 488 645 q 573 675 535 645 q 656 704 612 704 q 734 678 695 704 q 800 605 773 652 l 800 840 l -18 840 l -18 903 l 1053 903 l 1053 840 l 872 840 l 872 0 l 800 0 l 800 0 z "},"শ":{"ha":822,"x_min":-58,"x_max":840,"o":"m 587 0 l 587 650 q 542 784 587 728 q 433 840 497 840 q 348 821 387 840 q 289 768 309 802 q 376 666 345 721 q 406 560 406 612 q 383 502 406 526 q 325 479 359 479 q 266 508 294 479 q 226 587 238 538 q 185 508 213 538 q 126 479 157 479 q 69 502 92 479 q 45 560 45 526 q 80 656 45 600 q 181 777 116 712 q 128 823 168 806 q 36 840 88 840 l -58 840 l -58 903 l 36 903 q 160 881 107 903 q 235 822 213 860 q 326 882 275 862 q 433 903 377 903 q 519 881 479 903 q 587 822 560 860 l 587 1011 l 659 1011 l 659 903 l 840 903 l 840 840 l 659 840 l 659 0 l 587 0 l 587 0 z "},"ষ":{"ha":766,"x_min":-18,"x_max":784,"o":"m 531 0 q 367 234 493 139 q 70 343 240 329 l 34 415 l 287 641 l 61 840 l -18 840 l -18 903 l 784 903 l 784 840 l 603 840 l 603 0 l 531 0 l 531 0 m 531 163 l 531 452 l 350 596 l 134 406 q 361 321 258 385 q 531 163 464 258 l 531 163 m 531 533 l 531 840 l 161 840 l 531 533 l 531 533 z "},"স":{"ha":917,"x_min":-18,"x_max":936,"o":"m 683 0 l 683 461 q 617 520 650 498 q 556 542 583 542 q 476 503 520 542 q 394 397 432 464 q 304 285 352 327 q 213 244 256 244 q 92 301 144 244 q 33 442 40 358 l 96 461 q 135 358 101 399 q 213 316 168 316 q 290 368 246 316 q 394 524 334 421 q 284 718 352 636 q 132 840 217 800 l -18 840 l -18 903 l 936 903 l 936 840 l 755 840 l 755 0 l 683 0 l 683 0 m 457 569 q 505 602 479 591 q 556 614 531 614 q 619 601 587 614 q 683 560 652 587 l 683 840 l 258 840 q 379 712 329 780 q 457 569 430 643 l 457 569 z "},"হ":{"ha":730,"x_min":-18,"x_max":793,"o":"m 721 -172 q 461 79 629 -13 q 98 172 294 172 l 61 262 l 125 253 q 424 311 300 253 q 549 452 549 368 q 483 585 549 529 q 323 641 417 641 q 275 533 323 578 q 161 488 228 488 q 84 514 116 488 q 52 578 52 540 q 107 667 52 629 q 242 713 161 706 q 228 795 238 762 q 206 840 219 827 l -18 840 l -18 903 l 748 903 l 748 840 l 287 840 q 306 791 296 824 q 323 713 316 759 q 536 627 450 703 q 621 452 621 551 q 539 299 621 368 q 332 208 457 229 q 598 77 479 168 q 793 -144 717 -14 l 721 -172 l 721 -172 z "},"়":{"ha":0,"x_min":365,"x_max":509,"o":"m 437 -235 q 386 -214 406 -235 q 365 -163 365 -193 q 386 -111 365 -132 q 437 -90 406 -90 q 489 -111 468 -90 q 509 -163 509 -132 q 489 -214 509 -193 q 437 -235 468 -235 l 437 -235 z "},"ঽ":{"ha":755,"x_min":42,"x_max":728,"o":"m 665 -9 q 393 256 549 157 q 69 370 237 356 l 42 433 q 361 513 229 433 q 493 704 493 592 q 440 813 493 768 q 312 858 387 858 q 247 849 276 858 q 195 822 217 840 q 253 798 229 822 q 276 740 276 775 q 247 670 276 699 q 177 641 219 641 q 88 670 125 641 q 51 740 51 699 q 127 874 51 818 q 312 930 204 930 q 498 864 421 930 q 574 704 574 798 q 491 518 574 603 q 276 397 408 433 q 518 257 403 352 q 728 27 634 163 l 665 -9 l 665 -9 z "},"া":{"ha":403,"x_min":-18,"x_max":421,"o":"m 168 0 l 168 605 q 120 772 159 704 q 33 840 81 840 l -18 840 l -18 903 l 33 903 q 112 879 76 903 q 168 813 148 854 l 168 1011 l 240 1011 l 240 903 l 421 903 l 421 840 l 240 840 l 240 0 l 168 0 l 168 0 z "},"ি":{"ha":397,"x_min":-18,"x_max":867,"o":"m -18 840 l -18 903 l 144 903 q 105 966 119 928 q 90 1048 90 1004 q 181 1220 90 1149 q 397 1291 271 1291 q 624 1225 502 1291 q 867 1039 746 1160 l 822 993 q 603 1160 713 1102 q 397 1219 493 1219 q 231 1169 300 1219 q 163 1048 163 1118 q 184 964 163 1002 q 244 903 206 925 l 415 903 l 415 840 l 235 840 l 235 0 l 163 0 l 163 840 l -18 840 l -18 840 z "},"ী":{"ha":397,"x_min":-686,"x_max":415,"o":"m 163 0 l 163 840 l -18 840 l -18 903 l 163 903 q -7 1173 148 1064 q -379 1282 -163 1282 q -545 1245 -477 1282 q -614 1156 -614 1208 q -573 1088 -614 1116 q -475 1060 -533 1060 q -391 1067 -446 1060 q -307 1075 -336 1075 q -192 1027 -240 1075 q -144 912 -144 979 l -217 912 q -243 980 -217 952 q -307 1008 -269 1008 q -393 1001 -336 1008 q -479 993 -450 993 q -626 1041 -565 993 q -686 1156 -686 1089 q -602 1300 -686 1246 q -379 1355 -518 1355 q 55 1223 -125 1355 q 235 903 235 1091 l 415 903 l 415 840 l 235 840 l 235 0 l 163 0 l 163 0 z "},"ু":{"ha":0,"x_min":-533,"x_max":54,"o":"m -9 -433 q -101 -304 -51 -361 q -208 -208 -152 -247 q -279 -293 -233 -262 q -379 -325 -325 -325 q -488 -285 -442 -325 q -533 -190 -533 -246 q -485 -88 -533 -130 q -370 -45 -437 -45 q -303 -57 -336 -45 q -244 -90 -269 -69 q -238 -44 -240 -69 q -235 9 -235 -20 l -163 9 q -167 -74 -163 -38 q -181 -135 -172 -110 q -52 -250 -112 -184 q 54 -397 7 -316 l -9 -433 l -9 -433 m -379 -253 q -311 -226 -343 -253 q -262 -154 -278 -199 q -311 -126 -284 -135 q -370 -117 -338 -117 q -434 -138 -408 -117 q -461 -190 -461 -159 q -437 -234 -461 -215 q -379 -253 -414 -253 l -379 -253 z "},"ূ":{"ha":0,"x_min":-452,"x_max":208,"o":"m -235 18 l -163 18 l -163 -99 l -211 -126 q -240 -107 -222 -114 q -280 -99 -258 -99 q -350 -126 -321 -99 q -379 -190 -379 -152 q -350 -254 -379 -228 q -280 -280 -321 -280 q -217 -265 -244 -280 q -181 -226 -190 -251 l -117 -217 l 208 -388 l 172 -442 l -126 -289 q -197 -336 -157 -320 q -280 -352 -237 -352 q -401 -304 -350 -352 q -452 -190 -452 -256 q -401 -81 -452 -126 q -278 -36 -350 -36 q -253 -38 -264 -36 q -235 -42 -242 -40 l -235 18 l -235 18 z "},"ৃ":{"ha":0,"x_min":-397,"x_max":-45,"o":"m -90 -452 l -397 -190 l -199 0 l -154 -54 l -289 -190 l -45 -397 l -90 -452 l -90 -452 z "},"ৄ":{"ha":0,"x_min":-401,"x_max":-49,"o":"m -401 -92 l -197 43 l -154 -4 l -280 -88 l -49 -210 l -90 -262 l -166 -220 l -280 -296 l -49 -417 l -90 -470 l -401 -300 l -229 -186 l -401 -92 l -401 -92 z "},"ে":{"ha":558,"x_min":-18,"x_max":576,"o":"m -18 840 l -18 903 l 576 903 l 576 840 l 424 840 q 246 633 311 760 q 181 361 181 506 q 226 159 181 244 q 343 54 271 74 q 337 75 340 63 q 334 101 334 87 q 360 163 334 137 q 424 190 387 190 q 495 163 466 190 q 524 99 524 137 q 484 16 524 51 q 388 -18 444 -18 q 191 93 273 -18 q 108 361 108 204 q 164 611 108 488 q 325 840 220 735 l -18 840 l -18 840 z "},"ৈ":{"ha":583,"x_min":-18,"x_max":601,"o":"m -18 903 l 405 903 q 431 929 421 912 q 441 966 441 946 q 424 1004 441 988 q 387 1020 408 1020 q 278 1011 350 1020 q 170 1002 206 1002 q 61 1045 107 1002 q 16 1147 16 1087 q 35 1225 16 1187 q 88 1291 54 1262 l 143 1255 q 103 1201 117 1230 q 88 1147 88 1172 q 109 1089 88 1113 q 161 1066 130 1066 q 269 1079 197 1066 q 377 1093 341 1093 q 473 1053 433 1093 q 513 957 513 1013 q 508 933 513 946 q 495 903 504 919 l 601 903 l 601 840 l 477 840 q 260 649 341 777 q 179 370 179 522 q 232 164 179 251 q 368 63 285 78 q 358 88 361 74 q 354 117 354 101 q 379 175 354 152 q 441 199 405 199 q 517 172 486 199 q 549 108 549 146 q 507 25 549 60 q 405 -9 464 -9 q 194 99 282 -9 q 107 361 107 208 q 174 643 107 515 q 359 840 242 771 l -18 840 l -18 903 l -18 903 z "},"ো":{"ha":1084,"x_min":-18,"x_max":1102,"o":"m -18 840 l -18 903 l 558 903 l 558 840 l 424 840 q 246 633 311 760 q 181 361 181 506 q 226 159 181 244 q 343 54 271 74 q 337 75 340 63 q 334 101 334 87 q 360 163 334 137 q 424 190 387 190 q 495 163 466 190 q 524 99 524 137 q 484 16 524 51 q 388 -18 444 -18 q 191 93 273 -18 q 108 361 108 204 q 164 611 108 488 q 325 840 220 735 l -18 840 l -18 840 m 849 0 l 849 605 q 801 772 840 704 q 713 840 762 840 l 663 840 l 663 903 l 713 903 q 793 879 757 903 q 849 813 829 854 l 849 1011 l 921 1011 l 921 903 l 1102 903 l 1102 840 l 921 840 l 921 0 l 849 0 l 849 0 z "},"ৌ":{"ha":1671,"x_min":-18,"x_max":1689,"o":"m -18 840 l -18 903 l 558 903 l 558 840 l 424 840 q 246 633 311 760 q 181 361 181 506 q 226 159 181 244 q 343 54 271 74 q 337 75 340 63 q 334 101 334 87 q 360 163 334 137 q 424 190 387 190 q 495 163 466 190 q 524 99 524 137 q 484 16 524 51 q 388 -18 444 -18 q 191 93 273 -18 q 108 361 108 204 q 164 611 108 488 q 325 840 220 735 l -18 840 l -18 840 m 1436 0 l 1436 840 l 1255 840 l 1255 903 l 1436 903 q 1380 1018 1436 970 q 1246 1066 1324 1066 q 1084 1034 1190 1066 q 921 1002 977 1002 q 780 1060 838 1002 q 722 1201 722 1118 q 730 1243 722 1223 q 750 1282 737 1264 l 813 1264 q 799 1235 804 1252 q 795 1201 795 1219 q 832 1112 795 1149 q 921 1075 869 1075 q 1084 1106 977 1075 q 1246 1138 1190 1138 q 1431 1069 1355 1138 q 1508 903 1508 1001 l 1689 903 l 1689 840 l 1508 840 l 1508 0 l 1436 0 l 1436 0 z "},"্":{"ha":0,"x_min":-251,"x_max":199,"o":"m 144 -423 l -251 -52 l -199 2 l 199 -368 l 144 -423 l 144 -423 z "},"ৎ":{"ha":742,"x_min":69,"x_max":692,"o":"m 610 0 q 526 181 601 98 q 331 307 450 264 q 141 440 213 350 q 69 632 69 529 q 163 843 69 764 q 412 921 256 921 q 539 861 486 921 q 592 713 592 800 q 539 580 592 636 q 412 524 486 524 q 291 580 341 524 q 240 713 240 636 q 247 778 240 748 q 267 831 255 807 q 175 756 210 811 q 141 632 141 701 q 195 489 141 558 q 340 379 249 421 q 585 222 489 325 q 692 0 681 119 l 610 0 l 610 0 m 415 587 q 489 625 459 587 q 520 717 520 663 q 489 810 520 771 q 415 849 459 849 q 342 810 372 849 q 312 717 312 771 q 342 625 312 663 q 415 587 372 587 l 415 587 z "},"ৗ":{"ha":397,"x_min":-551,"x_max":415,"o":"m 163 0 l 163 840 l -18 840 l -18 903 l 163 903 q 107 1018 163 970 q -27 1066 51 1066 q -190 1034 -83 1066 q -352 1002 -296 1002 q -493 1060 -435 1002 q -551 1201 -551 1118 q -544 1243 -551 1223 q -524 1282 -536 1264 l -461 1264 q -474 1235 -470 1252 q -479 1201 -479 1219 q -442 1112 -479 1149 q -352 1075 -405 1075 q -190 1106 -296 1075 q -27 1138 -83 1138 q 158 1069 81 1138 q 235 903 235 1001 l 415 903 l 415 840 l 235 840 l 235 0 l 163 0 l 163 0 z "},"ড়":{"ha":992,"x_min":-18,"x_max":1010,"o":"m -18 840 l -18 903 l 1010 903 l 1010 840 l 475 840 l 475 560 q 496 496 475 522 q 547 470 517 470 q 637 524 587 470 q 728 668 686 578 q 858 569 807 647 q 908 388 908 491 q 797 139 908 242 q 529 36 686 36 q 203 219 338 36 q 69 659 69 401 l 141 668 q 255 273 141 437 q 529 108 368 108 q 746 193 656 108 q 836 397 836 278 q 815 491 836 446 q 755 569 793 536 q 660 437 717 486 q 547 388 603 388 q 445 439 488 388 q 403 560 403 489 l 403 840 l -18 840 l -18 840 m 520 -208 q 469 -187 489 -208 q 448 -135 448 -166 q 469 -84 448 -105 q 520 -63 489 -63 q 572 -84 551 -63 q 592 -135 592 -105 q 572 -187 592 -166 q 520 -208 551 -208 l 520 -208 z "},"ঢ়":{"ha":757,"x_min":-18,"x_max":775,"o":"m -18 840 l -18 903 l 775 903 l 775 840 l 217 840 l 217 253 q 246 157 217 197 q 316 117 275 117 q 499 239 394 117 q 605 452 605 361 l 578 448 q 508 473 536 448 q 479 533 479 498 q 510 603 479 574 q 587 632 542 632 q 657 601 629 632 q 686 524 686 569 q 566 200 686 356 q 316 45 446 45 q 195 106 246 45 q 144 253 144 166 l 144 840 l -18 840 l -18 840 m 325 -217 q 274 -197 294 -217 q 253 -150 253 -177 q 274 -101 253 -121 q 325 -81 294 -81 q 377 -101 356 -81 q 397 -150 397 -121 q 377 -197 397 -177 q 325 -217 356 -217 l 325 -217 z "},"য়":{"ha":818,"x_min":-18,"x_max":836,"o":"m 583 0 q 400 221 535 134 q 87 325 265 309 l 33 424 l 294 623 l 87 840 l -18 840 l -18 903 l 836 903 l 836 840 l 656 840 l 656 0 l 583 0 l 583 0 m 583 135 l 583 840 l 186 840 l 403 614 l 123 397 q 398 315 276 385 q 583 135 520 246 l 583 135 m 258 -9 q 214 10 233 -9 q 195 54 195 29 q 214 98 195 79 q 258 117 233 117 q 303 98 284 117 q 321 54 321 79 q 303 10 321 29 q 258 -9 284 -9 l 258 -9 z "},"ৠ":{"ha":1149,"x_min":22,"x_max":1167,"o":"m 681 0 q 491 232 614 143 q 220 334 368 321 l 166 406 q 375 569 262 502 q 609 668 488 636 q 486 716 540 681 q 401 804 432 751 q 293 697 354 735 q 175 659 233 659 q 67 702 112 659 q 22 804 22 744 q 48 874 22 845 q 112 903 74 903 q 163 884 143 903 q 184 840 184 865 q 171 796 184 815 q 139 777 157 777 l 121 777 q 140 751 121 762 q 184 740 159 740 q 281 791 224 740 q 401 930 338 842 q 517 786 442 840 q 672 731 591 731 l 672 903 l 744 903 l 744 461 q 865 387 815 428 q 943 298 916 345 l 943 1011 l 1015 1011 l 1015 903 l 1167 903 l 1167 840 l 1015 840 l 1015 144 l 961 144 q 887 275 943 211 q 744 388 831 340 l 744 0 l 681 0 l 681 0 m 672 144 l 672 605 q 435 517 538 569 q 265 397 332 464 q 488 321 381 387 q 672 144 594 255 l 672 144 m 818 -461 l 511 -199 l 710 -9 l 755 -63 l 619 -199 l 863 -406 l 818 -461 l 818 -461 z "},"ৡ":{"ha":836,"x_min":70,"x_max":766,"o":"m 152 804 q 163 859 152 831 q 197 912 175 887 l 260 876 q 240 846 247 865 q 233 804 233 827 q 295 690 233 748 q 459 596 358 632 q 682 461 598 545 q 766 289 766 377 q 697 100 766 182 q 522 0 629 18 l 459 54 q 487 135 479 107 q 495 181 495 164 q 444 302 495 251 q 323 352 394 352 q 196 307 249 352 q 143 199 143 262 q 163 133 143 163 q 215 90 182 103 q 238 148 215 125 q 296 172 262 172 q 360 148 334 172 q 387 90 387 125 q 386 82 387 87 q 385 74 385 78 l 414 60 q 402 42 406 54 q 397 16 397 31 q 438 -52 397 -18 q 544 -108 479 -87 q 692 -188 636 -137 q 748 -289 748 -238 q 703 -399 748 -350 q 587 -461 657 -448 l 544 -428 q 564 -377 558 -392 q 569 -352 569 -361 q 536 -281 569 -311 q 455 -251 502 -251 q 372 -278 406 -251 q 338 -343 338 -305 q 350 -382 338 -365 q 383 -406 363 -399 q 399 -373 383 -387 q 439 -359 415 -359 q 481 -373 464 -359 q 498 -406 498 -387 q 476 -444 498 -428 q 421 -461 453 -461 q 328 -426 367 -461 q 289 -343 289 -392 q 338 -247 289 -287 q 455 -208 387 -208 q 569 -250 522 -208 q 616 -352 616 -293 q 613 -384 616 -370 q 605 -406 610 -397 q 667 -361 643 -394 q 692 -289 692 -329 q 642 -207 692 -247 q 511 -139 592 -166 q 389 -70 435 -114 q 343 22 343 -25 q 308 5 327 11 q 269 0 289 0 q 128 58 186 0 q 70 199 70 116 q 144 359 70 293 q 323 424 219 424 q 496 353 424 424 q 567 181 567 282 q 563 129 567 152 q 549 90 558 107 q 647 167 610 112 q 685 289 685 222 q 608 427 685 358 q 405 542 531 497 q 221 656 291 583 q 152 804 152 728 l 152 804 z "},"ৢ":{"ha":0,"x_min":-666,"x_max":-267,"o":"m -605 -13 q -599 14 -605 0 q -580 43 -592 29 l -529 14 q -540 2 -536 9 q -544 -13 -544 -5 q -516 -72 -544 -43 q -442 -117 -488 -101 q -315 -193 -363 -146 q -267 -287 -267 -240 q -302 -396 -267 -349 q -388 -452 -336 -442 l -452 -414 q -435 -378 -441 -396 q -430 -347 -430 -361 q -456 -282 -430 -309 q -520 -255 -482 -255 q -582 -278 -556 -255 q -609 -336 -609 -302 q -599 -372 -609 -356 q -573 -394 -589 -388 q -558 -364 -573 -376 q -522 -352 -544 -352 q -485 -367 -500 -352 q -470 -403 -470 -381 q -490 -443 -470 -426 q -542 -461 -511 -461 q -630 -424 -594 -461 q -666 -336 -666 -388 q -624 -238 -666 -278 q -520 -197 -582 -197 q -418 -241 -461 -197 q -376 -347 -376 -285 q -378 -375 -376 -363 q -385 -394 -381 -387 q -343 -355 -359 -385 q -327 -287 -327 -325 q -366 -221 -327 -255 q -468 -164 -405 -188 q -567 -100 -529 -143 q -605 -13 -605 -58 l -605 -13 z "},"ৣ":{"ha":0,"x_min":-672,"x_max":150,"o":"m -188 -13 q -182 14 -188 0 q -163 43 -175 29 l -112 14 q -123 2 -119 9 q -126 -13 -126 -5 q -98 -72 -126 -43 q -25 -117 -70 -101 q 102 -193 54 -146 q 150 -287 150 -240 q 116 -396 150 -349 q 29 -452 81 -442 l -34 -414 q -18 -378 -23 -396 q -13 -347 -13 -361 q -39 -282 -13 -309 q -103 -255 -65 -255 q -165 -278 -139 -255 q -191 -336 -191 -302 q -182 -372 -191 -356 q -155 -394 -172 -388 q -141 -364 -155 -376 q -105 -352 -126 -352 q -68 -367 -83 -352 q -52 -403 -52 -381 q -73 -443 -52 -426 q -125 -461 -94 -461 q -213 -424 -177 -461 q -249 -336 -249 -388 q -207 -238 -249 -278 q -103 -197 -164 -197 q -1 -241 -43 -197 q 42 -347 42 -285 q 39 -375 42 -363 q 33 -394 36 -387 q 74 -355 58 -385 q 90 -287 90 -325 q 51 -221 90 -255 q -51 -164 13 -188 q -150 -100 -112 -143 q -188 -13 -188 -58 l -188 -13 m -610 -13 q -604 14 -610 0 q -585 43 -598 29 l -535 14 q -545 2 -542 9 q -549 -13 -549 -5 q -521 -72 -549 -43 q -448 -117 -493 -101 q -321 -193 -368 -146 q -273 -287 -273 -240 q -307 -396 -273 -349 q -394 -452 -341 -442 l -457 -414 q -441 -378 -446 -396 q -435 -347 -435 -361 q -461 -282 -435 -309 q -526 -255 -488 -255 q -588 -278 -562 -255 q -614 -336 -614 -302 q -604 -372 -614 -356 q -578 -394 -594 -388 q -564 -364 -578 -376 q -527 -352 -549 -352 q -490 -367 -506 -352 q -475 -403 -475 -381 q -496 -443 -475 -426 q -547 -461 -517 -461 q -636 -424 -600 -461 q -672 -336 -672 -388 q -629 -238 -672 -278 q -526 -197 -587 -197 q -424 -241 -466 -197 q -381 -347 -381 -285 q -384 -375 -381 -363 q -390 -394 -387 -387 q -349 -355 -365 -385 q -332 -287 -332 -325 q -371 -221 -332 -255 q -473 -164 -410 -188 q -573 -100 -535 -143 q -610 -13 -610 -58 l -610 -13 z "},"০":{"ha":903,"x_min":144,"x_max":759,"o":"m 452 163 q 235 250 325 163 q 144 461 144 338 q 235 671 144 583 q 452 759 325 759 q 668 671 578 759 q 759 461 759 583 q 668 250 759 338 q 452 163 578 163 l 452 163 m 452 235 q 618 301 549 235 q 686 461 686 367 q 618 620 686 554 q 452 686 549 686 q 285 620 354 686 q 217 461 217 554 q 285 301 217 367 q 452 235 354 235 l 452 235 z "},"১":{"ha":901,"x_min":193,"x_max":708,"o":"m 365 -18 q 275 11 312 -18 q 238 81 238 40 q 265 139 238 116 q 329 163 291 163 q 421 133 383 163 q 455 63 459 103 q 585 150 535 85 q 636 298 636 215 q 564 446 636 370 q 374 578 493 522 q 242 670 291 616 q 193 777 193 724 q 217 860 193 818 q 284 930 240 901 l 338 885 q 284 828 303 856 q 265 777 265 800 q 312 701 265 742 q 437 623 359 659 q 635 477 562 565 q 708 298 708 388 q 608 75 708 168 q 365 -18 508 -18 l 365 -18 z "},"২":{"ha":903,"x_min":117,"x_max":786,"o":"m 722 -135 q 457 140 612 22 q 117 325 302 258 l 154 397 q 250 357 200 370 q 352 343 300 343 q 531 386 457 343 q 605 488 605 428 q 549 576 605 535 q 406 632 493 618 q 277 693 329 647 q 226 795 226 739 q 240 856 226 827 q 280 903 255 885 l 334 867 q 307 834 316 852 q 298 795 298 815 q 344 730 298 760 q 461 686 390 699 q 616 614 554 670 q 677 488 677 558 q 595 340 677 401 q 397 280 513 280 q 621 98 524 191 q 786 -90 719 5 l 722 -135 l 722 -135 z "},"৩":{"ha":903,"x_min":54,"x_max":849,"o":"m 524 126 q 210 285 345 126 q 54 677 74 444 l 126 686 q 259 339 144 479 q 524 199 374 199 q 703 278 629 199 q 777 470 777 358 q 716 648 777 574 q 569 722 656 722 q 507 713 536 722 q 452 686 477 704 q 496 663 477 686 q 515 605 515 639 q 491 554 515 574 q 433 533 468 533 q 369 559 396 533 q 343 623 343 585 q 409 744 343 694 q 569 795 475 795 q 767 700 685 795 q 849 470 849 605 q 754 227 849 327 q 524 126 659 126 l 524 126 z "},"৪":{"ha":901,"x_min":166,"x_max":735,"o":"m 455 18 q 251 92 336 18 q 166 271 166 166 q 200 382 166 329 q 293 470 235 435 q 212 565 240 513 q 184 668 184 618 q 264 822 184 759 q 455 885 343 885 q 634 819 560 885 q 708 659 708 753 q 676 552 708 603 q 591 470 645 500 q 696 380 657 439 q 735 253 735 321 q 653 87 735 155 q 455 18 571 18 l 455 18 m 455 90 q 602 138 542 90 q 663 253 663 186 q 600 387 663 331 q 446 442 536 442 q 299 392 359 442 q 238 271 238 341 q 302 144 238 197 q 455 90 365 90 l 455 90 m 446 506 q 580 548 524 506 q 636 650 636 591 q 582 765 636 717 q 455 813 529 813 q 314 768 372 813 q 256 659 256 722 q 312 551 256 596 q 446 506 368 506 l 446 506 z "},"৫":{"ha":901,"x_min":130,"x_max":771,"o":"m 527 18 q 247 140 363 18 q 130 433 130 262 q 264 724 130 591 q 554 858 397 858 q 592 844 576 858 q 609 813 609 831 q 597 787 609 802 q 564 759 585 773 q 544 735 551 750 q 536 704 536 721 q 563 653 536 674 q 627 632 589 632 q 674 666 648 650 q 726 695 699 683 l 771 650 q 606 498 666 591 q 545 307 545 406 q 584 187 545 246 q 690 90 623 128 l 636 27 q 583 21 610 23 q 527 18 556 18 l 527 18 m 582 90 q 502 177 531 119 q 473 307 473 235 q 499 453 473 385 q 573 569 526 522 q 489 619 522 578 q 455 713 455 659 q 465 750 455 733 q 491 777 475 768 q 284 653 367 755 q 202 415 202 551 q 315 174 202 271 q 582 90 428 78 l 582 90 z "},"৬":{"ha":903,"x_min":45,"x_max":858,"o":"m 506 9 q 180 197 314 9 q 45 650 45 385 l 117 659 q 231 250 117 419 q 506 81 345 81 q 703 158 621 81 q 786 343 786 235 q 769 421 786 381 q 722 497 753 461 q 624 352 681 406 q 515 298 567 298 q 413 351 455 298 q 370 479 370 405 l 370 614 q 350 740 370 688 q 298 804 331 791 l 361 876 q 427 786 403 856 q 452 614 452 715 l 452 479 q 470 408 452 437 q 515 379 489 379 q 610 447 562 379 q 686 623 657 515 q 811 517 764 594 q 858 343 858 441 q 755 107 858 204 q 506 9 652 9 l 506 9 z "},"৭":{"ha":903,"x_min":154,"x_max":750,"o":"m 650 27 q 567 75 601 27 q 533 190 533 123 l 533 542 q 448 495 489 511 q 370 479 406 479 q 217 536 280 479 q 154 677 154 594 q 217 818 154 760 q 370 876 280 876 q 536 802 468 876 q 605 623 605 728 l 605 190 q 619 126 605 152 q 650 99 632 99 q 682 111 665 99 q 713 144 699 123 l 750 81 q 702 42 728 56 q 650 27 675 27 l 650 27 m 370 551 q 444 572 403 551 q 533 632 486 592 q 485 753 533 703 q 370 804 437 804 q 268 769 311 804 q 226 686 226 735 q 268 591 226 630 q 370 551 311 551 l 370 551 z "},"৮":{"ha":901,"x_min":22,"x_max":880,"o":"m 293 36 q 197 79 237 36 q 157 181 157 121 l 157 704 q 136 775 157 746 q 85 804 116 804 q 47 805 67 804 q 22 804 27 806 l 31 876 l 121 876 q 198 825 166 876 q 229 704 229 775 l 229 569 q 288 589 258 582 q 347 596 318 596 q 470 573 415 596 q 554 506 526 549 q 622 579 582 553 q 708 605 663 605 q 762 601 726 605 q 816 596 798 596 q 856 599 840 596 q 880 605 872 601 l 871 524 q 849 522 867 520 q 816 524 831 524 q 762 528 798 524 q 708 533 726 533 q 625 488 659 533 q 591 379 591 442 q 481 151 582 265 q 293 36 381 36 l 293 36 m 229 181 q 248 129 229 150 q 293 108 267 108 q 436 200 370 108 q 527 433 502 293 q 458 499 504 475 q 356 524 412 524 q 277 515 311 524 q 229 488 244 506 l 229 181 l 229 181 z "},"৯":{"ha":901,"x_min":103,"x_max":798,"o":"m 184 813 q 196 861 184 834 q 229 912 208 887 l 293 876 q 273 846 280 865 q 265 804 265 827 q 330 692 265 750 q 500 596 394 634 q 716 463 634 547 q 798 289 798 379 q 730 107 798 186 q 554 9 661 27 l 491 54 q 510 107 493 61 q 527 172 527 154 q 474 299 527 246 q 347 352 421 352 q 226 307 276 352 q 175 199 175 262 q 195 133 175 163 q 247 90 215 103 q 266 129 251 114 q 302 144 282 144 q 353 128 332 144 q 374 90 374 112 q 348 26 374 52 q 284 0 321 0 q 156 58 210 0 q 103 199 103 116 q 177 359 103 293 q 356 424 251 424 q 528 353 457 424 q 600 181 600 282 q 595 129 600 152 q 582 90 591 107 q 680 167 643 112 q 717 289 717 222 q 640 427 717 358 q 437 542 564 497 q 254 657 323 583 q 184 813 184 731 l 184 813 z "},"ৰ":{"ha":782,"x_min":-18,"x_max":800,"o":"m 556 0 q 381 220 509 128 q 78 343 253 312 l 33 406 q 247 610 114 524 q 547 740 379 695 l 547 840 l -18 840 l -18 903 l 800 903 l 800 840 l 619 840 l 619 0 l 556 0 l 556 0 m 547 433 l 547 668 q 422 629 482 657 q 312 560 361 601 q 415 517 356 549 q 547 433 475 484 l 547 433 m 547 154 l 547 361 q 377 467 452 428 q 249 515 302 506 q 183 468 215 495 q 123 406 152 441 q 368 317 258 383 q 547 154 479 251 l 547 154 z "},"ৱ":{"ha":813,"x_min":-18,"x_max":831,"o":"m 397 -36 q 255 132 349 67 q 45 208 161 197 l 54 271 q 299 186 190 258 q 461 0 408 114 l 397 -36 l 397 -36 m 587 0 q 405 225 540 130 q 81 352 269 320 l 54 406 q 286 633 150 544 q 578 750 423 722 l 578 840 l -18 840 l -18 903 l 831 903 l 831 840 l 650 840 l 650 0 l 587 0 l 587 0 m 578 154 l 578 677 q 340 583 450 654 q 154 406 229 513 q 399 317 289 383 q 578 154 509 251 l 578 154 z "},"৲":{"ha":847,"x_min":58,"x_max":775,"o":"m 750 -471 q 459 -126 623 -289 l 141 157 l 60 220 q 175 305 85 242 q 202 289 188 314 q 461 -23 336 137 q 769 -442 585 -182 l 775 -455 q 750 -471 775 -455 z "},"৳":{"ha":692,"x_min":51,"x_max":627,"o":"m 513 307 q 480 302 491 302 q 407 327 442 302 q 372 388 372 352 q 401 452 372 426 q 471 479 430 479 q 554 442 520 479 q 589 352 589 405 q 547 195 589 294 q 446 51 508 103 q 269 0 363 -18 q 172 58 213 11 q 134 186 134 105 l 134 527 l 52 527 l 52 594 l 134 594 l 134 838 q 107 914 134 887 q 52 928 92 928 l 52 1004 l 81 1004 q 172 961 128 1004 q 217 838 217 917 l 217 744 l 217 594 l 625 594 l 625 527 l 217 527 l 217 186 q 291 69 217 87 q 415 116 367 61 q 513 307 468 168 z "},"৴":{"ha":730,"x_min":60,"x_max":648,"o":"m 621 863 q 647 852 621 863 l 645 838 q 414 370 508 549 q 215 20 320 191 q 190 -2 204 -9 q 60 61 90 43 l 130 139 l 394 473 q 621 863 529 661 z "},"৵":{"ha":863,"x_min":60,"x_max":789,"o":"m 228 390 q 233 375 231 383 q 237 358 235 367 q 223 289 244 320 q 168 251 202 258 q 99 269 130 246 q 61 334 69 293 q 83 423 52 381 q 139 462 103 448 q 284 475 206 489 q 399 390 363 459 q 419 278 424 340 q 578 535 432 275 q 751 871 695 746 l 787 842 q 564 374 634 500 q 363 4 459 179 q 240 69 302 36 q 341 211 314 121 q 347 314 359 271 q 247 405 325 401 q 222 403 226 405 l 228 390 z "},"৶":{"ha":733,"x_min":47,"x_max":704,"o":"m 58 163 l 60 251 q 206 280 92 237 q 298 401 300 316 q 228 506 293 495 q 201 433 228 462 q 137 403 175 403 q 73 433 99 403 q 47 506 47 462 q 79 583 47 551 q 155 614 105 609 q 365 453 327 630 q 341 303 379 385 q 249 217 311 238 q 134 179 155 184 q 298 134 190 61 q 663 887 475 255 l 703 862 q 417 105 536 251 q 58 163 247 -126 z "},"৷":{"ha":233,"x_min":78,"x_max":150,"o":"m 78 0 l 78 903 l 150 903 l 150 0 l 78 0 l 78 0 z "},"৸":{"ha":742,"x_min":98,"x_max":648,"o":"m 170 903 l 170 415 q 370 588 258 520 q 603 677 482 656 l 648 623 q 648 9 648 349 l 585 -9 q 574 605 578 293 q 348 489 457 571 q 170 307 238 406 l 98 343 l 98 903 l 170 903 z "},"৹":{"ha":545,"x_min":36,"x_max":464,"o":"m 249 137 q 141 163 195 137 q 61 243 87 190 q 36 352 36 296 q 61 461 36 408 q 141 541 87 515 q 249 567 195 567 q 359 541 305 567 q 438 461 412 515 q 464 352 464 408 q 438 243 464 296 q 359 163 412 190 q 249 137 305 137 m 172 220 q 187 211 172 220 q 247 202 202 202 q 322 220 293 202 q 368 272 352 238 q 385 355 385 305 q 368 438 385 405 q 322 489 352 471 q 247 508 293 508 q 172 489 202 508 q 126 438 143 471 q 110 355 110 405 q 126 272 110 305 q 172 220 143 238 z "},"৺":{"ha":851,"x_min":226,"x_max":946,"o":"m 567 600 q 556 591 567 600 q 515 582 545 582 q 464 598 484 582 q 444 639 444 614 q 466 688 444 668 q 520 708 488 708 q 569 688 549 708 q 589 643 589 668 q 567 600 589 618 m 506 453 q 226 833 325 457 l 303 843 q 502 527 390 536 q 707 664 596 520 q 883 916 818 807 l 946 880 q 715 557 820 661 q 506 453 610 453 l 506 453 z "},"৻":{"ha":675,"x_min":211,"x_max":629,"o":"m 576 0 l 213 392 q 284 838 -74 695 l 321 768 q 255 466 58 677 l 629 58 l 576 0 l 576 0 l 576 0 z "},"‌":{"ha":0,"x_min":0,"x_max":72,"o":"m 0 -442 l 0 1355 l 72 1355 l 72 -442 l 0 -442 l 0 -442 z "},"‍":{"ha":0,"x_min":0,"x_max":307,"o":"m 0 -442 l 0 1355 l 307 1355 l 307 1282 l 72 1282 l 72 -442 l 0 -442 l 0 -442 z "},"–":{"ha":903,"x_min":0,"x_max":903,"o":"m 0 424 l 0 497 l 903 497 l 903 424 l 0 424 l 0 424 z "},"—":{"ha":1849,"x_min":0,"x_max":1806,"o":"m 0 424 l 0 497 l 1806 497 l 1806 424 l 0 424 l 0 424 z "},"‘":{"ha":551,"x_min":163,"x_max":388,"o":"m 289 750 q 200 787 237 750 q 163 876 163 824 q 211 1046 163 966 q 343 1174 260 1125 l 388 1120 q 290 1035 327 1091 q 253 912 253 979 q 273 926 258 921 q 307 930 287 930 q 365 904 341 930 q 388 840 388 878 q 359 776 388 802 q 289 750 331 750 l 289 750 z "},"’":{"ha":569,"x_min":163,"x_max":406,"o":"m 208 641 l 172 704 q 284 788 242 737 q 325 894 325 840 q 301 874 318 881 q 262 867 284 867 q 191 896 220 867 q 163 966 163 925 q 197 1043 163 1011 q 280 1075 231 1075 q 369 1035 332 1075 q 406 939 406 995 q 352 764 406 845 q 208 641 298 683 l 208 641 z "},"“":{"ha":786,"x_min":163,"x_max":623,"o":"m 163 786 l 298 1120 l 370 1120 l 289 786 l 163 786 l 163 786 m 415 786 l 551 1120 l 623 1120 l 542 786 l 415 786 l 415 786 z "},"”":{"ha":831,"x_min":163,"x_max":668,"o":"m 163 786 l 271 1147 l 415 1147 l 244 786 l 163 786 l 163 786 m 415 786 l 524 1147 l 668 1147 l 497 786 l 415 786 l 415 786 z "},"…":{"ha":1463,"x_min":163,"x_max":1300,"o":"m 163 0 l 163 81 l 361 81 l 361 0 l 163 0 l 163 0 m 632 0 l 632 81 l 831 81 l 831 0 l 632 0 l 632 0 m 1102 0 l 1102 81 l 1300 81 l 1300 0 l 1102 0 l 1102 0 z "},"₹":{"ha":737,"x_min":45,"x_max":692,"o":"m 414 619 q 415 636 415 630 l 47 636 l 79 713 l 399 713 q 381 740 392 728 q 177 807 318 807 l 47 807 l 79 885 l 690 885 l 657 807 l 424 807 q 489 713 473 780 l 690 713 l 657 636 l 500 636 q 184 423 500 446 l 596 5 l 473 5 l 60 419 l 60 491 q 414 619 399 489 z "},"−":{"ha":441,"x_min":13,"x_max":428,"o":"m 13 433 l 13 497 l 428 497 l 428 433 l 13 433 l 13 433 z "},"◌":{"ha":1300,"x_min":163,"x_max":1138,"o":"m 585 874 q 604 920 585 901 q 650 939 623 939 q 696 920 677 939 q 715 874 715 901 q 696 828 715 847 q 650 809 677 809 q 604 828 623 809 q 585 874 585 847 l 585 874 m 585 29 q 604 75 585 56 q 650 94 623 94 q 696 75 677 94 q 715 29 715 56 q 696 -17 715 2 q 650 -36 677 -36 q 604 -17 623 -36 q 585 29 585 2 l 585 29 m 163 452 q 182 498 163 479 q 228 517 200 517 q 274 498 255 517 q 293 452 293 479 q 274 405 293 424 q 228 387 255 387 q 182 405 200 387 q 163 452 163 424 l 163 452 m 1008 452 q 1027 498 1008 479 q 1073 517 1046 517 q 1119 498 1100 517 q 1138 452 1138 479 q 1119 405 1138 424 q 1073 387 1100 387 q 1027 405 1046 387 q 1008 452 1008 424 l 1008 452 m 220 240 q 239 286 220 267 q 285 305 258 305 q 331 286 312 305 q 350 240 350 267 q 331 194 350 213 q 285 175 312 175 q 239 194 258 175 q 220 240 220 213 l 220 240 m 952 663 q 971 709 952 690 q 1017 728 990 728 q 1063 709 1044 728 q 1082 663 1082 690 q 1063 617 1082 636 q 1017 598 1044 598 q 971 617 990 598 q 952 663 952 636 l 952 663 m 796 818 q 815 864 796 845 q 862 883 834 883 q 908 864 889 883 q 927 818 927 845 q 908 772 927 791 q 862 753 889 753 q 815 772 834 753 q 796 818 796 791 l 796 818 m 374 87 q 393 133 374 114 q 439 152 412 152 q 485 133 466 152 q 504 87 504 114 q 485 40 504 60 q 439 20 466 20 q 393 40 412 20 q 374 87 374 60 l 374 87 m 220 663 q 239 709 220 690 q 285 728 258 728 q 331 709 312 728 q 350 663 350 690 q 331 617 350 636 q 285 598 312 598 q 239 617 258 598 q 220 663 220 636 l 220 663 m 952 240 q 971 286 952 267 q 1017 305 990 305 q 1063 286 1044 305 q 1082 240 1082 267 q 1063 194 1082 213 q 1017 175 1044 175 q 971 194 990 175 q 952 240 952 213 l 952 240 m 374 818 q 393 864 374 845 q 439 883 412 883 q 485 864 466 883 q 504 818 504 845 q 485 772 504 791 q 439 753 466 753 q 393 772 412 753 q 374 818 374 791 l 374 818 m 796 87 q 815 133 796 114 q 862 152 834 152 q 908 133 889 152 q 927 87 927 114 q 908 40 927 60 q 862 20 889 20 q 815 40 834 20 q 796 87 796 60 l 796 87 z "}}}
